<?xml version="1.0" encoding="utf-8" standalone="no"?>
<!DOCTYPE svg PUBLIC "-//W3C//DTD SVG 1.1//EN"
  "http://www.w3.org/Graphics/SVG/1.1/DTD/svg11.dtd">
<svg xmlns:xlink="http://www.w3.org/1999/xlink" width="712.618437pt" height="610.884062pt" viewBox="0 0 712.618437 610.884062" xmlns="http://www.w3.org/2000/svg" version="1.1">
 <metadata>
  <rdf:RDF xmlns:dc="http://purl.org/dc/elements/1.1/" xmlns:cc="http://creativecommons.org/ns#" xmlns:rdf="http://www.w3.org/1999/02/22-rdf-syntax-ns#">
   <cc:Work>
    <dc:type rdf:resource="http://purl.org/dc/dcmitype/StillImage"/>
    <dc:date>2026-03-24T20:08:06.561438</dc:date>
    <dc:format>image/svg+xml</dc:format>
    <dc:creator>
     <cc:Agent>
      <dc:title>Matplotlib v3.9.1, https://matplotlib.org/</dc:title>
     </cc:Agent>
    </dc:creator>
   </cc:Work>
  </rdf:RDF>
 </metadata>
 <defs>
  <style type="text/css">*{stroke-linejoin: round; stroke-linecap: butt}</style>
 </defs>
 <g id="figure_1">
  <g id="patch_1">
   <path d="M 0 610.884062 
L 712.618437 610.884062 
L 712.618437 0 
L 0 0 
L 0 610.884062 
z
" style="fill: none"/>
  </g>
  <g id="axes_1">
   <g id="patch_2">
    <path d="M 35.208438 586.038125 
L 705.418437 586.038125 
L 705.418437 34.318125 
L 35.208438 34.318125 
L 35.208438 586.038125 
z
" style="fill: none"/>
   </g>
   <g id="matplotlib.axis_1">
    <g id="xtick_1">
     <g id="line2d_1">
      <defs>
       <path id="m36414b2c60" d="M 0 0 
L 0 3.5 
" style="stroke: #000000; stroke-width: 0.8"/>
      </defs>
      <g>
       <use xlink:href="#m36414b2c60" x="113.527997" y="586.038125" style="stroke: #000000; stroke-width: 0.8"/>
      </g>
     </g>
     <g id="text_1">
      <!-- Q5 -->
      <g transform="translate(105.699091 601.396406) scale(0.11 -0.11)">
       <defs>
        <path id="DejaVuSans-51" d="M 2522 4238 
Q 1834 4238 1429 3725 
Q 1025 3213 1025 2328 
Q 1025 1447 1429 934 
Q 1834 422 2522 422 
Q 3209 422 3611 934 
Q 4013 1447 4013 2328 
Q 4013 3213 3611 3725 
Q 3209 4238 2522 4238 
z
M 3406 84 
L 4238 -825 
L 3475 -825 
L 2784 -78 
Q 2681 -84 2626 -87 
Q 2572 -91 2522 -91 
Q 1538 -91 948 567 
Q 359 1225 359 2328 
Q 359 3434 948 4092 
Q 1538 4750 2522 4750 
Q 3503 4750 4090 4092 
Q 4678 3434 4678 2328 
Q 4678 1516 4351 937 
Q 4025 359 3406 84 
z
" transform="scale(0.015625)"/>
        <path id="DejaVuSans-35" d="M 691 4666 
L 3169 4666 
L 3169 4134 
L 1269 4134 
L 1269 2991 
Q 1406 3038 1543 3061 
Q 1681 3084 1819 3084 
Q 2600 3084 3056 2656 
Q 3513 2228 3513 1497 
Q 3513 744 3044 326 
Q 2575 -91 1722 -91 
Q 1428 -91 1123 -41 
Q 819 9 494 109 
L 494 744 
Q 775 591 1075 516 
Q 1375 441 1709 441 
Q 2250 441 2565 725 
Q 2881 1009 2881 1497 
Q 2881 1984 2565 2268 
Q 2250 2553 1709 2553 
Q 1456 2553 1204 2497 
Q 953 2441 691 2322 
L 691 4666 
z
" transform="scale(0.015625)"/>
       </defs>
       <use xlink:href="#DejaVuSans-51"/>
       <use xlink:href="#DejaVuSans-35" x="78.710938"/>
      </g>
     </g>
    </g>
    <g id="xtick_2">
     <g id="line2d_2">
      <g>
       <use xlink:href="#m36414b2c60" x="241.920717" y="586.038125" style="stroke: #000000; stroke-width: 0.8"/>
      </g>
     </g>
     <g id="text_2">
      <!-- Q6 -->
      <g transform="translate(234.091811 601.396406) scale(0.11 -0.11)">
       <defs>
        <path id="DejaVuSans-36" d="M 2113 2584 
Q 1688 2584 1439 2293 
Q 1191 2003 1191 1497 
Q 1191 994 1439 701 
Q 1688 409 2113 409 
Q 2538 409 2786 701 
Q 3034 994 3034 1497 
Q 3034 2003 2786 2293 
Q 2538 2584 2113 2584 
z
M 3366 4563 
L 3366 3988 
Q 3128 4100 2886 4159 
Q 2644 4219 2406 4219 
Q 1781 4219 1451 3797 
Q 1122 3375 1075 2522 
Q 1259 2794 1537 2939 
Q 1816 3084 2150 3084 
Q 2853 3084 3261 2657 
Q 3669 2231 3669 1497 
Q 3669 778 3244 343 
Q 2819 -91 2113 -91 
Q 1303 -91 875 529 
Q 447 1150 447 2328 
Q 447 3434 972 4092 
Q 1497 4750 2381 4750 
Q 2619 4750 2861 4703 
Q 3103 4656 3366 4563 
z
" transform="scale(0.015625)"/>
       </defs>
       <use xlink:href="#DejaVuSans-51"/>
       <use xlink:href="#DejaVuSans-36" x="78.710938"/>
      </g>
     </g>
    </g>
    <g id="xtick_3">
     <g id="line2d_3">
      <g>
       <use xlink:href="#m36414b2c60" x="370.313438" y="586.038125" style="stroke: #000000; stroke-width: 0.8"/>
      </g>
     </g>
     <g id="text_3">
      <!-- Q7 -->
      <g transform="translate(362.484531 601.396406) scale(0.11 -0.11)">
       <defs>
        <path id="DejaVuSans-37" d="M 525 4666 
L 3525 4666 
L 3525 4397 
L 1831 0 
L 1172 0 
L 2766 4134 
L 525 4134 
L 525 4666 
z
" transform="scale(0.015625)"/>
       </defs>
       <use xlink:href="#DejaVuSans-51"/>
       <use xlink:href="#DejaVuSans-37" x="78.710938"/>
      </g>
     </g>
    </g>
    <g id="xtick_4">
     <g id="line2d_4">
      <g>
       <use xlink:href="#m36414b2c60" x="498.706158" y="586.038125" style="stroke: #000000; stroke-width: 0.8"/>
      </g>
     </g>
     <g id="text_4">
      <!-- Q8 -->
      <g transform="translate(490.877252 601.396406) scale(0.11 -0.11)">
       <defs>
        <path id="DejaVuSans-38" d="M 2034 2216 
Q 1584 2216 1326 1975 
Q 1069 1734 1069 1313 
Q 1069 891 1326 650 
Q 1584 409 2034 409 
Q 2484 409 2743 651 
Q 3003 894 3003 1313 
Q 3003 1734 2745 1975 
Q 2488 2216 2034 2216 
z
M 1403 2484 
Q 997 2584 770 2862 
Q 544 3141 544 3541 
Q 544 4100 942 4425 
Q 1341 4750 2034 4750 
Q 2731 4750 3128 4425 
Q 3525 4100 3525 3541 
Q 3525 3141 3298 2862 
Q 3072 2584 2669 2484 
Q 3125 2378 3379 2068 
Q 3634 1759 3634 1313 
Q 3634 634 3220 271 
Q 2806 -91 2034 -91 
Q 1263 -91 848 271 
Q 434 634 434 1313 
Q 434 1759 690 2068 
Q 947 2378 1403 2484 
z
M 1172 3481 
Q 1172 3119 1398 2916 
Q 1625 2713 2034 2713 
Q 2441 2713 2670 2916 
Q 2900 3119 2900 3481 
Q 2900 3844 2670 4047 
Q 2441 4250 2034 4250 
Q 1625 4250 1398 4047 
Q 1172 3844 1172 3481 
z
" transform="scale(0.015625)"/>
       </defs>
       <use xlink:href="#DejaVuSans-51"/>
       <use xlink:href="#DejaVuSans-38" x="78.710938"/>
      </g>
     </g>
    </g>
    <g id="xtick_5">
     <g id="line2d_5">
      <g>
       <use xlink:href="#m36414b2c60" x="627.098878" y="586.038125" style="stroke: #000000; stroke-width: 0.8"/>
      </g>
     </g>
     <g id="text_5">
      <!-- Q9 -->
      <g transform="translate(619.269972 601.396406) scale(0.11 -0.11)">
       <defs>
        <path id="DejaVuSans-39" d="M 703 97 
L 703 672 
Q 941 559 1184 500 
Q 1428 441 1663 441 
Q 2288 441 2617 861 
Q 2947 1281 2994 2138 
Q 2813 1869 2534 1725 
Q 2256 1581 1919 1581 
Q 1219 1581 811 2004 
Q 403 2428 403 3163 
Q 403 3881 828 4315 
Q 1253 4750 1959 4750 
Q 2769 4750 3195 4129 
Q 3622 3509 3622 2328 
Q 3622 1225 3098 567 
Q 2575 -91 1691 -91 
Q 1453 -91 1209 -44 
Q 966 3 703 97 
z
M 1959 2075 
Q 2384 2075 2632 2365 
Q 2881 2656 2881 3163 
Q 2881 3666 2632 3958 
Q 2384 4250 1959 4250 
Q 1534 4250 1286 3958 
Q 1038 3666 1038 3163 
Q 1038 2656 1286 2365 
Q 1534 2075 1959 2075 
z
" transform="scale(0.015625)"/>
       </defs>
       <use xlink:href="#DejaVuSans-51"/>
       <use xlink:href="#DejaVuSans-39" x="78.710938"/>
      </g>
     </g>
    </g>
   </g>
   <g id="matplotlib.axis_2">
    <g id="ytick_1">
     <g id="line2d_6">
      <defs>
       <path id="m45e2b63534" d="M 0 0 
L -3.5 0 
" style="stroke: #000000; stroke-width: 0.8"/>
      </defs>
      <g>
       <use xlink:href="#m45e2b63534" x="35.208438" y="586.038125" style="stroke: #000000; stroke-width: 0.8"/>
      </g>
     </g>
     <g id="text_6">
      <!-- 1 -->
      <g transform="translate(21.845938 589.837344) scale(0.1 -0.1)">
       <defs>
        <path id="DejaVuSans-31" d="M 794 531 
L 1825 531 
L 1825 4091 
L 703 3866 
L 703 4441 
L 1819 4666 
L 2450 4666 
L 2450 531 
L 3481 531 
L 3481 0 
L 794 0 
L 794 531 
z
" transform="scale(0.015625)"/>
       </defs>
       <use xlink:href="#DejaVuSans-31"/>
      </g>
     </g>
    </g>
    <g id="ytick_2">
     <g id="line2d_7">
      <g>
       <use xlink:href="#m45e2b63534" x="35.208438" y="497.051028" style="stroke: #000000; stroke-width: 0.8"/>
      </g>
     </g>
     <g id="text_7">
      <!-- 2 -->
      <g transform="translate(21.845938 500.850247) scale(0.1 -0.1)">
       <defs>
        <path id="DejaVuSans-32" d="M 1228 531 
L 3431 531 
L 3431 0 
L 469 0 
L 469 531 
Q 828 903 1448 1529 
Q 2069 2156 2228 2338 
Q 2531 2678 2651 2914 
Q 2772 3150 2772 3378 
Q 2772 3750 2511 3984 
Q 2250 4219 1831 4219 
Q 1534 4219 1204 4116 
Q 875 4013 500 3803 
L 500 4441 
Q 881 4594 1212 4672 
Q 1544 4750 1819 4750 
Q 2544 4750 2975 4387 
Q 3406 4025 3406 3419 
Q 3406 3131 3298 2873 
Q 3191 2616 2906 2266 
Q 2828 2175 2409 1742 
Q 1991 1309 1228 531 
z
" transform="scale(0.015625)"/>
       </defs>
       <use xlink:href="#DejaVuSans-32"/>
      </g>
     </g>
    </g>
    <g id="ytick_3">
     <g id="line2d_8">
      <g>
       <use xlink:href="#m45e2b63534" x="35.208438" y="408.063931" style="stroke: #000000; stroke-width: 0.8"/>
      </g>
     </g>
     <g id="text_8">
      <!-- 3 -->
      <g transform="translate(21.845938 411.86315) scale(0.1 -0.1)">
       <defs>
        <path id="DejaVuSans-33" d="M 2597 2516 
Q 3050 2419 3304 2112 
Q 3559 1806 3559 1356 
Q 3559 666 3084 287 
Q 2609 -91 1734 -91 
Q 1441 -91 1130 -33 
Q 819 25 488 141 
L 488 750 
Q 750 597 1062 519 
Q 1375 441 1716 441 
Q 2309 441 2620 675 
Q 2931 909 2931 1356 
Q 2931 1769 2642 2001 
Q 2353 2234 1838 2234 
L 1294 2234 
L 1294 2753 
L 1863 2753 
Q 2328 2753 2575 2939 
Q 2822 3125 2822 3475 
Q 2822 3834 2567 4026 
Q 2313 4219 1838 4219 
Q 1578 4219 1281 4162 
Q 984 4106 628 3988 
L 628 4550 
Q 988 4650 1302 4700 
Q 1616 4750 1894 4750 
Q 2613 4750 3031 4423 
Q 3450 4097 3450 3541 
Q 3450 3153 3228 2886 
Q 3006 2619 2597 2516 
z
" transform="scale(0.015625)"/>
       </defs>
       <use xlink:href="#DejaVuSans-33"/>
      </g>
     </g>
    </g>
    <g id="ytick_4">
     <g id="line2d_9">
      <g>
       <use xlink:href="#m45e2b63534" x="35.208438" y="319.076835" style="stroke: #000000; stroke-width: 0.8"/>
      </g>
     </g>
     <g id="text_9">
      <!-- 4 -->
      <g transform="translate(21.845938 322.876053) scale(0.1 -0.1)">
       <defs>
        <path id="DejaVuSans-34" d="M 2419 4116 
L 825 1625 
L 2419 1625 
L 2419 4116 
z
M 2253 4666 
L 3047 4666 
L 3047 1625 
L 3713 1625 
L 3713 1100 
L 3047 1100 
L 3047 0 
L 2419 0 
L 2419 1100 
L 313 1100 
L 313 1709 
L 2253 4666 
z
" transform="scale(0.015625)"/>
       </defs>
       <use xlink:href="#DejaVuSans-34"/>
      </g>
     </g>
    </g>
    <g id="ytick_5">
     <g id="line2d_10">
      <g>
       <use xlink:href="#m45e2b63534" x="35.208438" y="230.089738" style="stroke: #000000; stroke-width: 0.8"/>
      </g>
     </g>
     <g id="text_10">
      <!-- 5 -->
      <g transform="translate(21.845938 233.888957) scale(0.1 -0.1)">
       <use xlink:href="#DejaVuSans-35"/>
      </g>
     </g>
    </g>
    <g id="text_11">
     <!-- Rating -->
     <g transform="translate(15.558281 327.907891) rotate(-90) scale(0.11 -0.11)">
      <defs>
       <path id="DejaVuSans-52" d="M 2841 2188 
Q 3044 2119 3236 1894 
Q 3428 1669 3622 1275 
L 4263 0 
L 3584 0 
L 2988 1197 
Q 2756 1666 2539 1819 
Q 2322 1972 1947 1972 
L 1259 1972 
L 1259 0 
L 628 0 
L 628 4666 
L 2053 4666 
Q 2853 4666 3247 4331 
Q 3641 3997 3641 3322 
Q 3641 2881 3436 2590 
Q 3231 2300 2841 2188 
z
M 1259 4147 
L 1259 2491 
L 2053 2491 
Q 2509 2491 2742 2702 
Q 2975 2913 2975 3322 
Q 2975 3731 2742 3939 
Q 2509 4147 2053 4147 
L 1259 4147 
z
" transform="scale(0.015625)"/>
       <path id="DejaVuSans-61" d="M 2194 1759 
Q 1497 1759 1228 1600 
Q 959 1441 959 1056 
Q 959 750 1161 570 
Q 1363 391 1709 391 
Q 2188 391 2477 730 
Q 2766 1069 2766 1631 
L 2766 1759 
L 2194 1759 
z
M 3341 1997 
L 3341 0 
L 2766 0 
L 2766 531 
Q 2569 213 2275 61 
Q 1981 -91 1556 -91 
Q 1019 -91 701 211 
Q 384 513 384 1019 
Q 384 1609 779 1909 
Q 1175 2209 1959 2209 
L 2766 2209 
L 2766 2266 
Q 2766 2663 2505 2880 
Q 2244 3097 1772 3097 
Q 1472 3097 1187 3025 
Q 903 2953 641 2809 
L 641 3341 
Q 956 3463 1253 3523 
Q 1550 3584 1831 3584 
Q 2591 3584 2966 3190 
Q 3341 2797 3341 1997 
z
" transform="scale(0.015625)"/>
       <path id="DejaVuSans-74" d="M 1172 4494 
L 1172 3500 
L 2356 3500 
L 2356 3053 
L 1172 3053 
L 1172 1153 
Q 1172 725 1289 603 
Q 1406 481 1766 481 
L 2356 481 
L 2356 0 
L 1766 0 
Q 1100 0 847 248 
Q 594 497 594 1153 
L 594 3053 
L 172 3053 
L 172 3500 
L 594 3500 
L 594 4494 
L 1172 4494 
z
" transform="scale(0.015625)"/>
       <path id="DejaVuSans-69" d="M 603 3500 
L 1178 3500 
L 1178 0 
L 603 0 
L 603 3500 
z
M 603 4863 
L 1178 4863 
L 1178 4134 
L 603 4134 
L 603 4863 
z
" transform="scale(0.015625)"/>
       <path id="DejaVuSans-6e" d="M 3513 2113 
L 3513 0 
L 2938 0 
L 2938 2094 
Q 2938 2591 2744 2837 
Q 2550 3084 2163 3084 
Q 1697 3084 1428 2787 
Q 1159 2491 1159 1978 
L 1159 0 
L 581 0 
L 581 3500 
L 1159 3500 
L 1159 2956 
Q 1366 3272 1645 3428 
Q 1925 3584 2291 3584 
Q 2894 3584 3203 3211 
Q 3513 2838 3513 2113 
z
" transform="scale(0.015625)"/>
       <path id="DejaVuSans-67" d="M 2906 1791 
Q 2906 2416 2648 2759 
Q 2391 3103 1925 3103 
Q 1463 3103 1205 2759 
Q 947 2416 947 1791 
Q 947 1169 1205 825 
Q 1463 481 1925 481 
Q 2391 481 2648 825 
Q 2906 1169 2906 1791 
z
M 3481 434 
Q 3481 -459 3084 -895 
Q 2688 -1331 1869 -1331 
Q 1566 -1331 1297 -1286 
Q 1028 -1241 775 -1147 
L 775 -588 
Q 1028 -725 1275 -790 
Q 1522 -856 1778 -856 
Q 2344 -856 2625 -561 
Q 2906 -266 2906 331 
L 2906 616 
Q 2728 306 2450 153 
Q 2172 0 1784 0 
Q 1141 0 747 490 
Q 353 981 353 1791 
Q 353 2603 747 3093 
Q 1141 3584 1784 3584 
Q 2172 3584 2450 3431 
Q 2728 3278 2906 2969 
L 2906 3500 
L 3481 3500 
L 3481 434 
z
" transform="scale(0.015625)"/>
      </defs>
      <use xlink:href="#DejaVuSans-52"/>
      <use xlink:href="#DejaVuSans-61" x="67.232422"/>
      <use xlink:href="#DejaVuSans-74" x="128.511719"/>
      <use xlink:href="#DejaVuSans-69" x="167.720703"/>
      <use xlink:href="#DejaVuSans-6e" x="195.503906"/>
      <use xlink:href="#DejaVuSans-67" x="258.882812"/>
     </g>
    </g>
   </g>
   <g id="patch_3">
    <path d="M 85.281598 408.063931 
L 113.527997 408.063931 
L 113.527997 319.076835 
L 85.281598 319.076835 
L 85.281598 408.063931 
z
" clip-path="url(#p3f065105d4)" style="fill: #25817a; stroke: #000000; stroke-width: 1.8; stroke-linejoin: miter"/>
   </g>
   <g id="line2d_11">
    <path d="M 99.404798 408.063931 
L 99.404798 497.051028 
" clip-path="url(#p3f065105d4)" style="fill: none; stroke: #000000; stroke-width: 1.4; stroke-linecap: square"/>
   </g>
   <g id="line2d_12">
    <path d="M 99.404798 319.076835 
L 99.404798 230.089738 
" clip-path="url(#p3f065105d4)" style="fill: none; stroke: #000000; stroke-width: 1.4; stroke-linecap: square"/>
   </g>
   <g id="line2d_13">
    <path d="M 92.343198 497.051028 
L 106.466397 497.051028 
" clip-path="url(#p3f065105d4)" style="fill: none; stroke: #000000; stroke-width: 1.4; stroke-linecap: square"/>
   </g>
   <g id="line2d_14">
    <path d="M 92.343198 230.089738 
L 106.466397 230.089738 
" clip-path="url(#p3f065105d4)" style="fill: none; stroke: #000000; stroke-width: 1.4; stroke-linecap: square"/>
   </g>
   <g id="line2d_15"/>
   <g id="patch_4">
    <path d="M 113.527997 497.051028 
L 141.774395 497.051028 
L 141.774395 408.063931 
L 113.527997 408.063931 
L 113.527997 497.051028 
z
" clip-path="url(#p3f065105d4)" style="fill: #87bab6; stroke: #000000; stroke-width: 1.8; stroke-linejoin: miter"/>
   </g>
   <g id="line2d_16">
    <path d="M 127.651196 497.051028 
L 127.651196 497.051028 
" clip-path="url(#p3f065105d4)" style="fill: none; stroke: #000000; stroke-width: 1.4; stroke-linecap: square"/>
   </g>
   <g id="line2d_17">
    <path d="M 127.651196 408.063931 
L 127.651196 319.076835 
" clip-path="url(#p3f065105d4)" style="fill: none; stroke: #000000; stroke-width: 1.4; stroke-linecap: square"/>
   </g>
   <g id="line2d_18">
    <path d="M 120.589597 497.051028 
L 134.712796 497.051028 
" clip-path="url(#p3f065105d4)" style="fill: none; stroke: #000000; stroke-width: 1.4; stroke-linecap: square"/>
   </g>
   <g id="line2d_19">
    <path d="M 120.589597 319.076835 
L 134.712796 319.076835 
" clip-path="url(#p3f065105d4)" style="fill: none; stroke: #000000; stroke-width: 1.4; stroke-linecap: square"/>
   </g>
   <g id="line2d_20"/>
   <g id="patch_5">
    <path d="M 213.674319 408.063931 
L 241.920717 408.063931 
L 241.920717 319.076835 
L 213.674319 319.076835 
L 213.674319 408.063931 
z
" clip-path="url(#p3f065105d4)" style="fill: #25817a; stroke: #000000; stroke-width: 1.8; stroke-linejoin: miter"/>
   </g>
   <g id="line2d_21">
    <path d="M 227.797518 408.063931 
L 227.797518 497.051028 
" clip-path="url(#p3f065105d4)" style="fill: none; stroke: #000000; stroke-width: 1.4; stroke-linecap: square"/>
   </g>
   <g id="line2d_22">
    <path d="M 227.797518 319.076835 
L 227.797518 230.089738 
" clip-path="url(#p3f065105d4)" style="fill: none; stroke: #000000; stroke-width: 1.4; stroke-linecap: square"/>
   </g>
   <g id="line2d_23">
    <path d="M 220.735918 497.051028 
L 234.859118 497.051028 
" clip-path="url(#p3f065105d4)" style="fill: none; stroke: #000000; stroke-width: 1.4; stroke-linecap: square"/>
   </g>
   <g id="line2d_24">
    <path d="M 220.735918 230.089738 
L 234.859118 230.089738 
" clip-path="url(#p3f065105d4)" style="fill: none; stroke: #000000; stroke-width: 1.4; stroke-linecap: square"/>
   </g>
   <g id="line2d_25"/>
   <g id="patch_6">
    <path d="M 241.920717 452.55748 
L 270.167116 452.55748 
L 270.167116 363.570383 
L 241.920717 363.570383 
L 241.920717 452.55748 
z
" clip-path="url(#p3f065105d4)" style="fill: #87bab6; stroke: #000000; stroke-width: 1.8; stroke-linejoin: miter"/>
   </g>
   <g id="line2d_26">
    <path d="M 256.043916 452.55748 
L 256.043916 497.051028 
" clip-path="url(#p3f065105d4)" style="fill: none; stroke: #000000; stroke-width: 1.4; stroke-linecap: square"/>
   </g>
   <g id="line2d_27">
    <path d="M 256.043916 363.570383 
L 256.043916 319.076835 
" clip-path="url(#p3f065105d4)" style="fill: none; stroke: #000000; stroke-width: 1.4; stroke-linecap: square"/>
   </g>
   <g id="line2d_28">
    <path d="M 248.982317 497.051028 
L 263.105516 497.051028 
" clip-path="url(#p3f065105d4)" style="fill: none; stroke: #000000; stroke-width: 1.4; stroke-linecap: square"/>
   </g>
   <g id="line2d_29">
    <path d="M 248.982317 319.076835 
L 263.105516 319.076835 
" clip-path="url(#p3f065105d4)" style="fill: none; stroke: #000000; stroke-width: 1.4; stroke-linecap: square"/>
   </g>
   <g id="line2d_30"/>
   <g id="patch_7">
    <path d="M 342.067039 497.051028 
L 370.313438 497.051028 
L 370.313438 319.076835 
L 342.067039 319.076835 
L 342.067039 497.051028 
z
" clip-path="url(#p3f065105d4)" style="fill: #25817a; stroke: #000000; stroke-width: 1.8; stroke-linejoin: miter"/>
   </g>
   <g id="line2d_31">
    <path d="M 356.190238 497.051028 
L 356.190238 586.038125 
" clip-path="url(#p3f065105d4)" style="fill: none; stroke: #000000; stroke-width: 1.4; stroke-linecap: square"/>
   </g>
   <g id="line2d_32">
    <path d="M 356.190238 319.076835 
L 356.190238 230.089738 
" clip-path="url(#p3f065105d4)" style="fill: none; stroke: #000000; stroke-width: 1.4; stroke-linecap: square"/>
   </g>
   <g id="line2d_33">
    <path d="M 349.128639 586.038125 
L 363.251838 586.038125 
" clip-path="url(#p3f065105d4)" style="fill: none; stroke: #000000; stroke-width: 1.4; stroke-linecap: square"/>
   </g>
   <g id="line2d_34">
    <path d="M 349.128639 230.089738 
L 363.251838 230.089738 
" clip-path="url(#p3f065105d4)" style="fill: none; stroke: #000000; stroke-width: 1.4; stroke-linecap: square"/>
   </g>
   <g id="line2d_35"/>
   <g id="patch_8">
    <path d="M 370.313437 363.570383 
L 398.559836 363.570383 
L 398.559836 274.583286 
L 370.313437 274.583286 
L 370.313437 363.570383 
z
" clip-path="url(#p3f065105d4)" style="fill: #87bab6; stroke: #000000; stroke-width: 1.8; stroke-linejoin: miter"/>
   </g>
   <g id="line2d_36">
    <path d="M 384.436637 363.570383 
L 384.436637 408.063931 
" clip-path="url(#p3f065105d4)" style="fill: none; stroke: #000000; stroke-width: 1.4; stroke-linecap: square"/>
   </g>
   <g id="line2d_37">
    <path d="M 384.436637 274.583286 
L 384.436637 230.089738 
" clip-path="url(#p3f065105d4)" style="fill: none; stroke: #000000; stroke-width: 1.4; stroke-linecap: square"/>
   </g>
   <g id="line2d_38">
    <path d="M 377.375037 408.063931 
L 391.498236 408.063931 
" clip-path="url(#p3f065105d4)" style="fill: none; stroke: #000000; stroke-width: 1.4; stroke-linecap: square"/>
   </g>
   <g id="line2d_39">
    <path d="M 377.375037 230.089738 
L 391.498236 230.089738 
" clip-path="url(#p3f065105d4)" style="fill: none; stroke: #000000; stroke-width: 1.4; stroke-linecap: square"/>
   </g>
   <g id="line2d_40"/>
   <g id="patch_9">
    <path d="M 470.459759 452.55748 
L 498.706158 452.55748 
L 498.706158 319.076835 
L 470.459759 319.076835 
L 470.459759 452.55748 
z
" clip-path="url(#p3f065105d4)" style="fill: #25817a; stroke: #000000; stroke-width: 1.8; stroke-linejoin: miter"/>
   </g>
   <g id="line2d_41">
    <path d="M 484.582959 452.55748 
L 484.582959 497.051028 
" clip-path="url(#p3f065105d4)" style="fill: none; stroke: #000000; stroke-width: 1.4; stroke-linecap: square"/>
   </g>
   <g id="line2d_42">
    <path d="M 484.582959 319.076835 
L 484.582959 230.089738 
" clip-path="url(#p3f065105d4)" style="fill: none; stroke: #000000; stroke-width: 1.4; stroke-linecap: square"/>
   </g>
   <g id="line2d_43">
    <path d="M 477.521359 497.051028 
L 491.644558 497.051028 
" clip-path="url(#p3f065105d4)" style="fill: none; stroke: #000000; stroke-width: 1.4; stroke-linecap: square"/>
   </g>
   <g id="line2d_44">
    <path d="M 477.521359 230.089738 
L 491.644558 230.089738 
" clip-path="url(#p3f065105d4)" style="fill: none; stroke: #000000; stroke-width: 1.4; stroke-linecap: square"/>
   </g>
   <g id="line2d_45"/>
   <g id="patch_10">
    <path d="M 498.706158 319.076835 
L 526.952556 319.076835 
L 526.952556 274.583286 
L 498.706158 274.583286 
L 498.706158 319.076835 
z
" clip-path="url(#p3f065105d4)" style="fill: #87bab6; stroke: #000000; stroke-width: 1.8; stroke-linejoin: miter"/>
   </g>
   <g id="line2d_46">
    <path d="M 512.829357 319.076835 
L 512.829357 319.076835 
" clip-path="url(#p3f065105d4)" style="fill: none; stroke: #000000; stroke-width: 1.4; stroke-linecap: square"/>
   </g>
   <g id="line2d_47">
    <path d="M 512.829357 274.583286 
L 512.829357 230.089738 
" clip-path="url(#p3f065105d4)" style="fill: none; stroke: #000000; stroke-width: 1.4; stroke-linecap: square"/>
   </g>
   <g id="line2d_48">
    <path d="M 505.767757 319.076835 
L 519.890957 319.076835 
" clip-path="url(#p3f065105d4)" style="fill: none; stroke: #000000; stroke-width: 1.4; stroke-linecap: square"/>
   </g>
   <g id="line2d_49">
    <path d="M 505.767757 230.089738 
L 519.890957 230.089738 
" clip-path="url(#p3f065105d4)" style="fill: none; stroke: #000000; stroke-width: 1.4; stroke-linecap: square"/>
   </g>
   <g id="line2d_50"/>
   <g id="patch_11">
    <path d="M 598.85248 319.076835 
L 627.098878 319.076835 
L 627.098878 230.089738 
L 598.85248 230.089738 
L 598.85248 319.076835 
z
" clip-path="url(#p3f065105d4)" style="fill: #25817a; stroke: #000000; stroke-width: 1.8; stroke-linejoin: miter"/>
   </g>
   <g id="line2d_51">
    <path d="M 612.975679 319.076835 
L 612.975679 408.063931 
" clip-path="url(#p3f065105d4)" style="fill: none; stroke: #000000; stroke-width: 1.4; stroke-linecap: square"/>
   </g>
   <g id="line2d_52">
    <path d="M 612.975679 230.089738 
L 612.975679 230.089738 
" clip-path="url(#p3f065105d4)" style="fill: none; stroke: #000000; stroke-width: 1.4; stroke-linecap: square"/>
   </g>
   <g id="line2d_53">
    <path d="M 605.914079 408.063931 
L 620.037278 408.063931 
" clip-path="url(#p3f065105d4)" style="fill: none; stroke: #000000; stroke-width: 1.4; stroke-linecap: square"/>
   </g>
   <g id="line2d_54">
    <path d="M 605.914079 230.089738 
L 620.037278 230.089738 
" clip-path="url(#p3f065105d4)" style="fill: none; stroke: #000000; stroke-width: 1.4; stroke-linecap: square"/>
   </g>
   <g id="line2d_55">
    <defs>
     <path id="mdaf9408308" d="M 0 3 
C 0.795609 3 1.55874 2.683901 2.12132 2.12132 
C 2.683901 1.55874 3 0.795609 3 0 
C 3 -0.795609 2.683901 -1.55874 2.12132 -2.12132 
C 1.55874 -2.683901 0.795609 -3 0 -3 
C -0.795609 -3 -1.55874 -2.683901 -2.12132 -2.12132 
C -2.683901 -1.55874 -3 -0.795609 -3 0 
C -3 0.795609 -2.683901 1.55874 -2.12132 2.12132 
C -1.55874 2.683901 -0.795609 3 0 3 
z
" style="stroke: #000000"/>
    </defs>
    <g clip-path="url(#p3f065105d4)">
     <use xlink:href="#mdaf9408308" x="612.975679" y="497.051028" style="fill-opacity: 0; stroke: #000000"/>
     <use xlink:href="#mdaf9408308" x="612.975679" y="497.051028" style="fill-opacity: 0; stroke: #000000"/>
    </g>
   </g>
   <g id="patch_12">
    <path d="M 627.098878 319.076835 
L 655.345277 319.076835 
L 655.345277 319.076835 
L 627.098878 319.076835 
L 627.098878 319.076835 
z
" clip-path="url(#p3f065105d4)" style="fill: #87bab6; stroke: #000000; stroke-width: 1.8; stroke-linejoin: miter"/>
   </g>
   <g id="line2d_56">
    <path d="M 641.222077 319.076835 
L 641.222077 319.076835 
" clip-path="url(#p3f065105d4)" style="fill: none; stroke: #000000; stroke-width: 1.4; stroke-linecap: square"/>
   </g>
   <g id="line2d_57">
    <path d="M 641.222077 319.076835 
L 641.222077 319.076835 
" clip-path="url(#p3f065105d4)" style="fill: none; stroke: #000000; stroke-width: 1.4; stroke-linecap: square"/>
   </g>
   <g id="line2d_58">
    <path d="M 634.160478 319.076835 
L 648.283677 319.076835 
" clip-path="url(#p3f065105d4)" style="fill: none; stroke: #000000; stroke-width: 1.4; stroke-linecap: square"/>
   </g>
   <g id="line2d_59">
    <path d="M 634.160478 319.076835 
L 648.283677 319.076835 
" clip-path="url(#p3f065105d4)" style="fill: none; stroke: #000000; stroke-width: 1.4; stroke-linecap: square"/>
   </g>
   <g id="line2d_60"/>
   <g id="line2d_61">
    <path d="M 85.281598 319.076835 
L 113.527997 319.076835 
" clip-path="url(#p3f065105d4)" style="fill: none; stroke: #ff0000; stroke-width: 3"/>
   </g>
   <g id="line2d_62">
    <path d="M 113.527997 497.051028 
L 141.774395 497.051028 
" clip-path="url(#p3f065105d4)" style="fill: none; stroke: #ff0000; stroke-width: 3"/>
   </g>
   <g id="line2d_63">
    <path d="M 213.674319 319.076835 
L 241.920717 319.076835 
" clip-path="url(#p3f065105d4)" style="fill: none; stroke: #ff0000; stroke-width: 3"/>
   </g>
   <g id="line2d_64">
    <path d="M 241.920717 408.063931 
L 270.167116 408.063931 
" clip-path="url(#p3f065105d4)" style="fill: none; stroke: #ff0000; stroke-width: 3"/>
   </g>
   <g id="line2d_65">
    <path d="M 342.067039 319.076835 
L 370.313438 319.076835 
" clip-path="url(#p3f065105d4)" style="fill: none; stroke: #ff0000; stroke-width: 3"/>
   </g>
   <g id="line2d_66">
    <path d="M 370.313437 319.076835 
L 398.559836 319.076835 
" clip-path="url(#p3f065105d4)" style="fill: none; stroke: #ff0000; stroke-width: 3"/>
   </g>
   <g id="line2d_67">
    <path d="M 470.459759 319.076835 
L 498.706158 319.076835 
" clip-path="url(#p3f065105d4)" style="fill: none; stroke: #ff0000; stroke-width: 3"/>
   </g>
   <g id="line2d_68">
    <path d="M 498.706158 319.076835 
L 526.952556 319.076835 
" clip-path="url(#p3f065105d4)" style="fill: none; stroke: #ff0000; stroke-width: 3"/>
   </g>
   <g id="line2d_69">
    <path d="M 598.85248 319.076835 
L 627.098878 319.076835 
" clip-path="url(#p3f065105d4)" style="fill: none; stroke: #ff0000; stroke-width: 3"/>
   </g>
   <g id="line2d_70">
    <path d="M 627.098878 319.076835 
L 655.345277 319.076835 
" clip-path="url(#p3f065105d4)" style="fill: none; stroke: #ff0000; stroke-width: 3"/>
   </g>
   <g id="patch_13">
    <path d="M 35.208438 586.038125 
L 705.418437 586.038125 
" style="fill: none; stroke: #000000; stroke-width: 0.8; stroke-linejoin: miter; stroke-linecap: square"/>
   </g>
   <g id="text_12">
    <!-- Men -->
    <g transform="translate(102.968622 156.00331) scale(0.1 -0.1)">
     <defs>
      <path id="DejaVuSans-4d" d="M 628 4666 
L 1569 4666 
L 2759 1491 
L 3956 4666 
L 4897 4666 
L 4897 0 
L 4281 0 
L 4281 4097 
L 3078 897 
L 2444 897 
L 1241 4097 
L 1241 0 
L 628 0 
L 628 4666 
z
" transform="scale(0.015625)"/>
      <path id="DejaVuSans-65" d="M 3597 1894 
L 3597 1613 
L 953 1613 
Q 991 1019 1311 708 
Q 1631 397 2203 397 
Q 2534 397 2845 478 
Q 3156 559 3463 722 
L 3463 178 
Q 3153 47 2828 -22 
Q 2503 -91 2169 -91 
Q 1331 -91 842 396 
Q 353 884 353 1716 
Q 353 2575 817 3079 
Q 1281 3584 2069 3584 
Q 2775 3584 3186 3129 
Q 3597 2675 3597 1894 
z
M 3022 2063 
Q 3016 2534 2758 2815 
Q 2500 3097 2075 3097 
Q 1594 3097 1305 2825 
Q 1016 2553 972 2059 
L 3022 2063 
z
" transform="scale(0.015625)"/>
     </defs>
     <use xlink:href="#DejaVuSans-4d"/>
     <use xlink:href="#DejaVuSans-65" x="86.279297"/>
     <use xlink:href="#DejaVuSans-6e" x="147.802734"/>
    </g>
    <!-- $\bar{x}=4.00$ -->
    <g transform="translate(93.277997 167.201123) scale(0.1 -0.1)">
     <defs>
      <path id="DejaVuSans-304" d="M -2518 4769 
L -650 4769 
L -650 4306 
L -2518 4306 
L -2518 4769 
z
" transform="scale(0.015625)"/>
      <path id="DejaVuSans-Oblique-78" d="M 3841 3500 
L 2234 1784 
L 3219 0 
L 2559 0 
L 1819 1388 
L 531 0 
L -166 0 
L 1556 1844 
L 641 3500 
L 1300 3500 
L 1972 2234 
L 3144 3500 
L 3841 3500 
z
" transform="scale(0.015625)"/>
      <path id="DejaVuSans-3d" d="M 678 2906 
L 4684 2906 
L 4684 2381 
L 678 2381 
L 678 2906 
z
M 678 1631 
L 4684 1631 
L 4684 1100 
L 678 1100 
L 678 1631 
z
" transform="scale(0.015625)"/>
      <path id="DejaVuSans-2e" d="M 684 794 
L 1344 794 
L 1344 0 
L 684 0 
L 684 794 
z
" transform="scale(0.015625)"/>
      <path id="DejaVuSans-30" d="M 2034 4250 
Q 1547 4250 1301 3770 
Q 1056 3291 1056 2328 
Q 1056 1369 1301 889 
Q 1547 409 2034 409 
Q 2525 409 2770 889 
Q 3016 1369 3016 2328 
Q 3016 3291 2770 3770 
Q 2525 4250 2034 4250 
z
M 2034 4750 
Q 2819 4750 3233 4129 
Q 3647 3509 3647 2328 
Q 3647 1150 3233 529 
Q 2819 -91 2034 -91 
Q 1250 -91 836 529 
Q 422 1150 422 2328 
Q 422 3509 836 4129 
Q 1250 4750 2034 4750 
z
" transform="scale(0.015625)"/>
     </defs>
     <use xlink:href="#DejaVuSans-304" transform="translate(62.138672 0.484375)"/>
     <use xlink:href="#DejaVuSans-Oblique-78" transform="translate(0 0.578125)"/>
     <use xlink:href="#DejaVuSans-3d" transform="translate(78.662109 0.578125)"/>
     <use xlink:href="#DejaVuSans-34" transform="translate(181.933594 0.578125)"/>
     <use xlink:href="#DejaVuSans-2e" transform="translate(245.556641 0.578125)"/>
     <use xlink:href="#DejaVuSans-30" transform="translate(277.34375 0.578125)"/>
     <use xlink:href="#DejaVuSans-30" transform="translate(340.966797 0.578125)"/>
    </g>
    <!-- $\mathrm{IQR}=1.00$ -->
    <g transform="translate(87.327997 178.398935) scale(0.1 -0.1)">
     <defs>
      <path id="DejaVuSans-49" d="M 628 4666 
L 1259 4666 
L 1259 0 
L 628 0 
L 628 4666 
z
" transform="scale(0.015625)"/>
     </defs>
     <use xlink:href="#DejaVuSans-49" transform="translate(0 0.78125)"/>
     <use xlink:href="#DejaVuSans-51" transform="translate(29.492188 0.78125)"/>
     <use xlink:href="#DejaVuSans-52" transform="translate(108.203125 0.78125)"/>
     <use xlink:href="#DejaVuSans-3d" transform="translate(197.167969 0.78125)"/>
     <use xlink:href="#DejaVuSans-31" transform="translate(300.439453 0.78125)"/>
     <use xlink:href="#DejaVuSans-2e" transform="translate(364.0625 0.78125)"/>
     <use xlink:href="#DejaVuSans-30" transform="translate(395.849609 0.78125)"/>
     <use xlink:href="#DejaVuSans-30" transform="translate(459.472656 0.78125)"/>
    </g>
    <!-- Women -->
    <g transform="translate(94.702997 189.596748) scale(0.1 -0.1)">
     <defs>
      <path id="DejaVuSans-57" d="M 213 4666 
L 850 4666 
L 1831 722 
L 2809 4666 
L 3519 4666 
L 4500 722 
L 5478 4666 
L 6119 4666 
L 4947 0 
L 4153 0 
L 3169 4050 
L 2175 0 
L 1381 0 
L 213 4666 
z
" transform="scale(0.015625)"/>
      <path id="DejaVuSans-6f" d="M 1959 3097 
Q 1497 3097 1228 2736 
Q 959 2375 959 1747 
Q 959 1119 1226 758 
Q 1494 397 1959 397 
Q 2419 397 2687 759 
Q 2956 1122 2956 1747 
Q 2956 2369 2687 2733 
Q 2419 3097 1959 3097 
z
M 1959 3584 
Q 2709 3584 3137 3096 
Q 3566 2609 3566 1747 
Q 3566 888 3137 398 
Q 2709 -91 1959 -91 
Q 1206 -91 779 398 
Q 353 888 353 1747 
Q 353 2609 779 3096 
Q 1206 3584 1959 3584 
z
" transform="scale(0.015625)"/>
      <path id="DejaVuSans-6d" d="M 3328 2828 
Q 3544 3216 3844 3400 
Q 4144 3584 4550 3584 
Q 5097 3584 5394 3201 
Q 5691 2819 5691 2113 
L 5691 0 
L 5113 0 
L 5113 2094 
Q 5113 2597 4934 2840 
Q 4756 3084 4391 3084 
Q 3944 3084 3684 2787 
Q 3425 2491 3425 1978 
L 3425 0 
L 2847 0 
L 2847 2094 
Q 2847 2600 2669 2842 
Q 2491 3084 2119 3084 
Q 1678 3084 1418 2786 
Q 1159 2488 1159 1978 
L 1159 0 
L 581 0 
L 581 3500 
L 1159 3500 
L 1159 2956 
Q 1356 3278 1631 3431 
Q 1906 3584 2284 3584 
Q 2666 3584 2933 3390 
Q 3200 3197 3328 2828 
z
" transform="scale(0.015625)"/>
     </defs>
     <use xlink:href="#DejaVuSans-57"/>
     <use xlink:href="#DejaVuSans-6f" x="93.001953"/>
     <use xlink:href="#DejaVuSans-6d" x="154.183594"/>
     <use xlink:href="#DejaVuSans-65" x="251.595703"/>
     <use xlink:href="#DejaVuSans-6e" x="313.119141"/>
    </g>
    <!-- $\bar{x}=2.00$ -->
    <g transform="translate(93.277997 200.79456) scale(0.1 -0.1)">
     <use xlink:href="#DejaVuSans-304" transform="translate(62.138672 0.484375)"/>
     <use xlink:href="#DejaVuSans-Oblique-78" transform="translate(0 0.578125)"/>
     <use xlink:href="#DejaVuSans-3d" transform="translate(78.662109 0.578125)"/>
     <use xlink:href="#DejaVuSans-32" transform="translate(181.933594 0.578125)"/>
     <use xlink:href="#DejaVuSans-2e" transform="translate(245.556641 0.578125)"/>
     <use xlink:href="#DejaVuSans-30" transform="translate(277.34375 0.578125)"/>
     <use xlink:href="#DejaVuSans-30" transform="translate(340.966797 0.578125)"/>
    </g>
    <!-- $\mathrm{IQR}=1.00$ -->
    <g transform="translate(87.327997 211.992373) scale(0.1 -0.1)">
     <use xlink:href="#DejaVuSans-49" transform="translate(0 0.78125)"/>
     <use xlink:href="#DejaVuSans-51" transform="translate(29.492188 0.78125)"/>
     <use xlink:href="#DejaVuSans-52" transform="translate(108.203125 0.78125)"/>
     <use xlink:href="#DejaVuSans-3d" transform="translate(197.167969 0.78125)"/>
     <use xlink:href="#DejaVuSans-31" transform="translate(300.439453 0.78125)"/>
     <use xlink:href="#DejaVuSans-2e" transform="translate(364.0625 0.78125)"/>
     <use xlink:href="#DejaVuSans-30" transform="translate(395.849609 0.78125)"/>
     <use xlink:href="#DejaVuSans-30" transform="translate(459.472656 0.78125)"/>
    </g>
   </g>
   <g id="text_13">
    <!-- Men -->
    <g transform="translate(231.361342 156.00331) scale(0.1 -0.1)">
     <use xlink:href="#DejaVuSans-4d"/>
     <use xlink:href="#DejaVuSans-65" x="86.279297"/>
     <use xlink:href="#DejaVuSans-6e" x="147.802734"/>
    </g>
    <!-- $\bar{x}=4.00$ -->
    <g transform="translate(221.670717 167.201123) scale(0.1 -0.1)">
     <use xlink:href="#DejaVuSans-304" transform="translate(62.138672 0.484375)"/>
     <use xlink:href="#DejaVuSans-Oblique-78" transform="translate(0 0.578125)"/>
     <use xlink:href="#DejaVuSans-3d" transform="translate(78.662109 0.578125)"/>
     <use xlink:href="#DejaVuSans-34" transform="translate(181.933594 0.578125)"/>
     <use xlink:href="#DejaVuSans-2e" transform="translate(245.556641 0.578125)"/>
     <use xlink:href="#DejaVuSans-30" transform="translate(277.34375 0.578125)"/>
     <use xlink:href="#DejaVuSans-30" transform="translate(340.966797 0.578125)"/>
    </g>
    <!-- $\mathrm{IQR}=1.00$ -->
    <g transform="translate(215.720717 178.398935) scale(0.1 -0.1)">
     <use xlink:href="#DejaVuSans-49" transform="translate(0 0.78125)"/>
     <use xlink:href="#DejaVuSans-51" transform="translate(29.492188 0.78125)"/>
     <use xlink:href="#DejaVuSans-52" transform="translate(108.203125 0.78125)"/>
     <use xlink:href="#DejaVuSans-3d" transform="translate(197.167969 0.78125)"/>
     <use xlink:href="#DejaVuSans-31" transform="translate(300.439453 0.78125)"/>
     <use xlink:href="#DejaVuSans-2e" transform="translate(364.0625 0.78125)"/>
     <use xlink:href="#DejaVuSans-30" transform="translate(395.849609 0.78125)"/>
     <use xlink:href="#DejaVuSans-30" transform="translate(459.472656 0.78125)"/>
    </g>
    <!-- Women -->
    <g transform="translate(223.095717 189.596748) scale(0.1 -0.1)">
     <use xlink:href="#DejaVuSans-57"/>
     <use xlink:href="#DejaVuSans-6f" x="93.001953"/>
     <use xlink:href="#DejaVuSans-6d" x="154.183594"/>
     <use xlink:href="#DejaVuSans-65" x="251.595703"/>
     <use xlink:href="#DejaVuSans-6e" x="313.119141"/>
    </g>
    <!-- $\bar{x}=3.00$ -->
    <g transform="translate(221.670717 200.79456) scale(0.1 -0.1)">
     <use xlink:href="#DejaVuSans-304" transform="translate(62.138672 0.484375)"/>
     <use xlink:href="#DejaVuSans-Oblique-78" transform="translate(0 0.578125)"/>
     <use xlink:href="#DejaVuSans-3d" transform="translate(78.662109 0.578125)"/>
     <use xlink:href="#DejaVuSans-33" transform="translate(181.933594 0.578125)"/>
     <use xlink:href="#DejaVuSans-2e" transform="translate(245.556641 0.578125)"/>
     <use xlink:href="#DejaVuSans-30" transform="translate(277.34375 0.578125)"/>
     <use xlink:href="#DejaVuSans-30" transform="translate(340.966797 0.578125)"/>
    </g>
    <!-- $\mathrm{IQR}=1.00$ -->
    <g transform="translate(215.720717 211.992373) scale(0.1 -0.1)">
     <use xlink:href="#DejaVuSans-49" transform="translate(0 0.78125)"/>
     <use xlink:href="#DejaVuSans-51" transform="translate(29.492188 0.78125)"/>
     <use xlink:href="#DejaVuSans-52" transform="translate(108.203125 0.78125)"/>
     <use xlink:href="#DejaVuSans-3d" transform="translate(197.167969 0.78125)"/>
     <use xlink:href="#DejaVuSans-31" transform="translate(300.439453 0.78125)"/>
     <use xlink:href="#DejaVuSans-2e" transform="translate(364.0625 0.78125)"/>
     <use xlink:href="#DejaVuSans-30" transform="translate(395.849609 0.78125)"/>
     <use xlink:href="#DejaVuSans-30" transform="translate(459.472656 0.78125)"/>
    </g>
   </g>
   <g id="text_14">
    <!-- Men -->
    <g transform="translate(359.754063 156.00331) scale(0.1 -0.1)">
     <use xlink:href="#DejaVuSans-4d"/>
     <use xlink:href="#DejaVuSans-65" x="86.279297"/>
     <use xlink:href="#DejaVuSans-6e" x="147.802734"/>
    </g>
    <!-- $\bar{x}=4.00$ -->
    <g transform="translate(350.063438 167.201123) scale(0.1 -0.1)">
     <use xlink:href="#DejaVuSans-304" transform="translate(62.138672 0.484375)"/>
     <use xlink:href="#DejaVuSans-Oblique-78" transform="translate(0 0.578125)"/>
     <use xlink:href="#DejaVuSans-3d" transform="translate(78.662109 0.578125)"/>
     <use xlink:href="#DejaVuSans-34" transform="translate(181.933594 0.578125)"/>
     <use xlink:href="#DejaVuSans-2e" transform="translate(245.556641 0.578125)"/>
     <use xlink:href="#DejaVuSans-30" transform="translate(277.34375 0.578125)"/>
     <use xlink:href="#DejaVuSans-30" transform="translate(340.966797 0.578125)"/>
    </g>
    <!-- $\mathrm{IQR}=2.00$ -->
    <g transform="translate(344.113438 178.398935) scale(0.1 -0.1)">
     <use xlink:href="#DejaVuSans-49" transform="translate(0 0.78125)"/>
     <use xlink:href="#DejaVuSans-51" transform="translate(29.492188 0.78125)"/>
     <use xlink:href="#DejaVuSans-52" transform="translate(108.203125 0.78125)"/>
     <use xlink:href="#DejaVuSans-3d" transform="translate(197.167969 0.78125)"/>
     <use xlink:href="#DejaVuSans-32" transform="translate(300.439453 0.78125)"/>
     <use xlink:href="#DejaVuSans-2e" transform="translate(364.0625 0.78125)"/>
     <use xlink:href="#DejaVuSans-30" transform="translate(395.849609 0.78125)"/>
     <use xlink:href="#DejaVuSans-30" transform="translate(459.472656 0.78125)"/>
    </g>
    <!-- Women -->
    <g transform="translate(351.488438 189.596748) scale(0.1 -0.1)">
     <use xlink:href="#DejaVuSans-57"/>
     <use xlink:href="#DejaVuSans-6f" x="93.001953"/>
     <use xlink:href="#DejaVuSans-6d" x="154.183594"/>
     <use xlink:href="#DejaVuSans-65" x="251.595703"/>
     <use xlink:href="#DejaVuSans-6e" x="313.119141"/>
    </g>
    <!-- $\bar{x}=4.00$ -->
    <g transform="translate(350.063438 200.79456) scale(0.1 -0.1)">
     <use xlink:href="#DejaVuSans-304" transform="translate(62.138672 0.484375)"/>
     <use xlink:href="#DejaVuSans-Oblique-78" transform="translate(0 0.578125)"/>
     <use xlink:href="#DejaVuSans-3d" transform="translate(78.662109 0.578125)"/>
     <use xlink:href="#DejaVuSans-34" transform="translate(181.933594 0.578125)"/>
     <use xlink:href="#DejaVuSans-2e" transform="translate(245.556641 0.578125)"/>
     <use xlink:href="#DejaVuSans-30" transform="translate(277.34375 0.578125)"/>
     <use xlink:href="#DejaVuSans-30" transform="translate(340.966797 0.578125)"/>
    </g>
    <!-- $\mathrm{IQR}=1.00$ -->
    <g transform="translate(344.113438 211.992373) scale(0.1 -0.1)">
     <use xlink:href="#DejaVuSans-49" transform="translate(0 0.78125)"/>
     <use xlink:href="#DejaVuSans-51" transform="translate(29.492188 0.78125)"/>
     <use xlink:href="#DejaVuSans-52" transform="translate(108.203125 0.78125)"/>
     <use xlink:href="#DejaVuSans-3d" transform="translate(197.167969 0.78125)"/>
     <use xlink:href="#DejaVuSans-31" transform="translate(300.439453 0.78125)"/>
     <use xlink:href="#DejaVuSans-2e" transform="translate(364.0625 0.78125)"/>
     <use xlink:href="#DejaVuSans-30" transform="translate(395.849609 0.78125)"/>
     <use xlink:href="#DejaVuSans-30" transform="translate(459.472656 0.78125)"/>
    </g>
   </g>
   <g id="text_15">
    <!-- Men -->
    <g transform="translate(488.146783 156.00331) scale(0.1 -0.1)">
     <use xlink:href="#DejaVuSans-4d"/>
     <use xlink:href="#DejaVuSans-65" x="86.279297"/>
     <use xlink:href="#DejaVuSans-6e" x="147.802734"/>
    </g>
    <!-- $\bar{x}=4.00$ -->
    <g transform="translate(478.456158 167.201123) scale(0.1 -0.1)">
     <use xlink:href="#DejaVuSans-304" transform="translate(62.138672 0.484375)"/>
     <use xlink:href="#DejaVuSans-Oblique-78" transform="translate(0 0.578125)"/>
     <use xlink:href="#DejaVuSans-3d" transform="translate(78.662109 0.578125)"/>
     <use xlink:href="#DejaVuSans-34" transform="translate(181.933594 0.578125)"/>
     <use xlink:href="#DejaVuSans-2e" transform="translate(245.556641 0.578125)"/>
     <use xlink:href="#DejaVuSans-30" transform="translate(277.34375 0.578125)"/>
     <use xlink:href="#DejaVuSans-30" transform="translate(340.966797 0.578125)"/>
    </g>
    <!-- $\mathrm{IQR}=1.50$ -->
    <g transform="translate(472.506158 178.398935) scale(0.1 -0.1)">
     <use xlink:href="#DejaVuSans-49" transform="translate(0 0.78125)"/>
     <use xlink:href="#DejaVuSans-51" transform="translate(29.492188 0.78125)"/>
     <use xlink:href="#DejaVuSans-52" transform="translate(108.203125 0.78125)"/>
     <use xlink:href="#DejaVuSans-3d" transform="translate(197.167969 0.78125)"/>
     <use xlink:href="#DejaVuSans-31" transform="translate(300.439453 0.78125)"/>
     <use xlink:href="#DejaVuSans-2e" transform="translate(364.0625 0.78125)"/>
     <use xlink:href="#DejaVuSans-35" transform="translate(395.849609 0.78125)"/>
     <use xlink:href="#DejaVuSans-30" transform="translate(459.472656 0.78125)"/>
    </g>
    <!-- Women -->
    <g transform="translate(479.881158 189.596748) scale(0.1 -0.1)">
     <use xlink:href="#DejaVuSans-57"/>
     <use xlink:href="#DejaVuSans-6f" x="93.001953"/>
     <use xlink:href="#DejaVuSans-6d" x="154.183594"/>
     <use xlink:href="#DejaVuSans-65" x="251.595703"/>
     <use xlink:href="#DejaVuSans-6e" x="313.119141"/>
    </g>
    <!-- $\bar{x}=4.00$ -->
    <g transform="translate(478.456158 200.79456) scale(0.1 -0.1)">
     <use xlink:href="#DejaVuSans-304" transform="translate(62.138672 0.484375)"/>
     <use xlink:href="#DejaVuSans-Oblique-78" transform="translate(0 0.578125)"/>
     <use xlink:href="#DejaVuSans-3d" transform="translate(78.662109 0.578125)"/>
     <use xlink:href="#DejaVuSans-34" transform="translate(181.933594 0.578125)"/>
     <use xlink:href="#DejaVuSans-2e" transform="translate(245.556641 0.578125)"/>
     <use xlink:href="#DejaVuSans-30" transform="translate(277.34375 0.578125)"/>
     <use xlink:href="#DejaVuSans-30" transform="translate(340.966797 0.578125)"/>
    </g>
    <!-- $\mathrm{IQR}=0.50$ -->
    <g transform="translate(472.506158 211.992373) scale(0.1 -0.1)">
     <use xlink:href="#DejaVuSans-49" transform="translate(0 0.78125)"/>
     <use xlink:href="#DejaVuSans-51" transform="translate(29.492188 0.78125)"/>
     <use xlink:href="#DejaVuSans-52" transform="translate(108.203125 0.78125)"/>
     <use xlink:href="#DejaVuSans-3d" transform="translate(197.167969 0.78125)"/>
     <use xlink:href="#DejaVuSans-30" transform="translate(300.439453 0.78125)"/>
     <use xlink:href="#DejaVuSans-2e" transform="translate(364.0625 0.78125)"/>
     <use xlink:href="#DejaVuSans-35" transform="translate(395.849609 0.78125)"/>
     <use xlink:href="#DejaVuSans-30" transform="translate(459.472656 0.78125)"/>
    </g>
   </g>
   <g id="text_16">
    <!-- Men -->
    <g transform="translate(616.539503 156.00331) scale(0.1 -0.1)">
     <use xlink:href="#DejaVuSans-4d"/>
     <use xlink:href="#DejaVuSans-65" x="86.279297"/>
     <use xlink:href="#DejaVuSans-6e" x="147.802734"/>
    </g>
    <!-- $\bar{x}=4.00$ -->
    <g transform="translate(606.848878 167.201123) scale(0.1 -0.1)">
     <use xlink:href="#DejaVuSans-304" transform="translate(62.138672 0.484375)"/>
     <use xlink:href="#DejaVuSans-Oblique-78" transform="translate(0 0.578125)"/>
     <use xlink:href="#DejaVuSans-3d" transform="translate(78.662109 0.578125)"/>
     <use xlink:href="#DejaVuSans-34" transform="translate(181.933594 0.578125)"/>
     <use xlink:href="#DejaVuSans-2e" transform="translate(245.556641 0.578125)"/>
     <use xlink:href="#DejaVuSans-30" transform="translate(277.34375 0.578125)"/>
     <use xlink:href="#DejaVuSans-30" transform="translate(340.966797 0.578125)"/>
    </g>
    <!-- $\mathrm{IQR}=1.00$ -->
    <g transform="translate(600.898878 178.398935) scale(0.1 -0.1)">
     <use xlink:href="#DejaVuSans-49" transform="translate(0 0.78125)"/>
     <use xlink:href="#DejaVuSans-51" transform="translate(29.492188 0.78125)"/>
     <use xlink:href="#DejaVuSans-52" transform="translate(108.203125 0.78125)"/>
     <use xlink:href="#DejaVuSans-3d" transform="translate(197.167969 0.78125)"/>
     <use xlink:href="#DejaVuSans-31" transform="translate(300.439453 0.78125)"/>
     <use xlink:href="#DejaVuSans-2e" transform="translate(364.0625 0.78125)"/>
     <use xlink:href="#DejaVuSans-30" transform="translate(395.849609 0.78125)"/>
     <use xlink:href="#DejaVuSans-30" transform="translate(459.472656 0.78125)"/>
    </g>
    <!-- Women -->
    <g transform="translate(608.273878 189.596748) scale(0.1 -0.1)">
     <use xlink:href="#DejaVuSans-57"/>
     <use xlink:href="#DejaVuSans-6f" x="93.001953"/>
     <use xlink:href="#DejaVuSans-6d" x="154.183594"/>
     <use xlink:href="#DejaVuSans-65" x="251.595703"/>
     <use xlink:href="#DejaVuSans-6e" x="313.119141"/>
    </g>
    <!-- $\bar{x}=4.00$ -->
    <g transform="translate(606.848878 200.79456) scale(0.1 -0.1)">
     <use xlink:href="#DejaVuSans-304" transform="translate(62.138672 0.484375)"/>
     <use xlink:href="#DejaVuSans-Oblique-78" transform="translate(0 0.578125)"/>
     <use xlink:href="#DejaVuSans-3d" transform="translate(78.662109 0.578125)"/>
     <use xlink:href="#DejaVuSans-34" transform="translate(181.933594 0.578125)"/>
     <use xlink:href="#DejaVuSans-2e" transform="translate(245.556641 0.578125)"/>
     <use xlink:href="#DejaVuSans-30" transform="translate(277.34375 0.578125)"/>
     <use xlink:href="#DejaVuSans-30" transform="translate(340.966797 0.578125)"/>
    </g>
    <!-- $\mathrm{IQR}=0.00$ -->
    <g transform="translate(600.898878 211.992373) scale(0.1 -0.1)">
     <use xlink:href="#DejaVuSans-49" transform="translate(0 0.78125)"/>
     <use xlink:href="#DejaVuSans-51" transform="translate(29.492188 0.78125)"/>
     <use xlink:href="#DejaVuSans-52" transform="translate(108.203125 0.78125)"/>
     <use xlink:href="#DejaVuSans-3d" transform="translate(197.167969 0.78125)"/>
     <use xlink:href="#DejaVuSans-30" transform="translate(300.439453 0.78125)"/>
     <use xlink:href="#DejaVuSans-2e" transform="translate(364.0625 0.78125)"/>
     <use xlink:href="#DejaVuSans-30" transform="translate(395.849609 0.78125)"/>
     <use xlink:href="#DejaVuSans-30" transform="translate(459.472656 0.78125)"/>
    </g>
   </g>
   <g id="text_17">
    <!-- Clarity: item-level distributions by gender -->
    <g transform="translate(245.592188 16.318125) scale(0.12 -0.12)">
     <defs>
      <path id="DejaVuSans-43" d="M 4122 4306 
L 4122 3641 
Q 3803 3938 3442 4084 
Q 3081 4231 2675 4231 
Q 1875 4231 1450 3742 
Q 1025 3253 1025 2328 
Q 1025 1406 1450 917 
Q 1875 428 2675 428 
Q 3081 428 3442 575 
Q 3803 722 4122 1019 
L 4122 359 
Q 3791 134 3420 21 
Q 3050 -91 2638 -91 
Q 1578 -91 968 557 
Q 359 1206 359 2328 
Q 359 3453 968 4101 
Q 1578 4750 2638 4750 
Q 3056 4750 3426 4639 
Q 3797 4528 4122 4306 
z
" transform="scale(0.015625)"/>
      <path id="DejaVuSans-6c" d="M 603 4863 
L 1178 4863 
L 1178 0 
L 603 0 
L 603 4863 
z
" transform="scale(0.015625)"/>
      <path id="DejaVuSans-72" d="M 2631 2963 
Q 2534 3019 2420 3045 
Q 2306 3072 2169 3072 
Q 1681 3072 1420 2755 
Q 1159 2438 1159 1844 
L 1159 0 
L 581 0 
L 581 3500 
L 1159 3500 
L 1159 2956 
Q 1341 3275 1631 3429 
Q 1922 3584 2338 3584 
Q 2397 3584 2469 3576 
Q 2541 3569 2628 3553 
L 2631 2963 
z
" transform="scale(0.015625)"/>
      <path id="DejaVuSans-79" d="M 2059 -325 
Q 1816 -950 1584 -1140 
Q 1353 -1331 966 -1331 
L 506 -1331 
L 506 -850 
L 844 -850 
Q 1081 -850 1212 -737 
Q 1344 -625 1503 -206 
L 1606 56 
L 191 3500 
L 800 3500 
L 1894 763 
L 2988 3500 
L 3597 3500 
L 2059 -325 
z
" transform="scale(0.015625)"/>
      <path id="DejaVuSans-3a" d="M 750 794 
L 1409 794 
L 1409 0 
L 750 0 
L 750 794 
z
M 750 3309 
L 1409 3309 
L 1409 2516 
L 750 2516 
L 750 3309 
z
" transform="scale(0.015625)"/>
      <path id="DejaVuSans-20" transform="scale(0.015625)"/>
      <path id="DejaVuSans-2d" d="M 313 2009 
L 1997 2009 
L 1997 1497 
L 313 1497 
L 313 2009 
z
" transform="scale(0.015625)"/>
      <path id="DejaVuSans-76" d="M 191 3500 
L 800 3500 
L 1894 563 
L 2988 3500 
L 3597 3500 
L 2284 0 
L 1503 0 
L 191 3500 
z
" transform="scale(0.015625)"/>
      <path id="DejaVuSans-64" d="M 2906 2969 
L 2906 4863 
L 3481 4863 
L 3481 0 
L 2906 0 
L 2906 525 
Q 2725 213 2448 61 
Q 2172 -91 1784 -91 
Q 1150 -91 751 415 
Q 353 922 353 1747 
Q 353 2572 751 3078 
Q 1150 3584 1784 3584 
Q 2172 3584 2448 3432 
Q 2725 3281 2906 2969 
z
M 947 1747 
Q 947 1113 1208 752 
Q 1469 391 1925 391 
Q 2381 391 2643 752 
Q 2906 1113 2906 1747 
Q 2906 2381 2643 2742 
Q 2381 3103 1925 3103 
Q 1469 3103 1208 2742 
Q 947 2381 947 1747 
z
" transform="scale(0.015625)"/>
      <path id="DejaVuSans-73" d="M 2834 3397 
L 2834 2853 
Q 2591 2978 2328 3040 
Q 2066 3103 1784 3103 
Q 1356 3103 1142 2972 
Q 928 2841 928 2578 
Q 928 2378 1081 2264 
Q 1234 2150 1697 2047 
L 1894 2003 
Q 2506 1872 2764 1633 
Q 3022 1394 3022 966 
Q 3022 478 2636 193 
Q 2250 -91 1575 -91 
Q 1294 -91 989 -36 
Q 684 19 347 128 
L 347 722 
Q 666 556 975 473 
Q 1284 391 1588 391 
Q 1994 391 2212 530 
Q 2431 669 2431 922 
Q 2431 1156 2273 1281 
Q 2116 1406 1581 1522 
L 1381 1569 
Q 847 1681 609 1914 
Q 372 2147 372 2553 
Q 372 3047 722 3315 
Q 1072 3584 1716 3584 
Q 2034 3584 2315 3537 
Q 2597 3491 2834 3397 
z
" transform="scale(0.015625)"/>
      <path id="DejaVuSans-62" d="M 3116 1747 
Q 3116 2381 2855 2742 
Q 2594 3103 2138 3103 
Q 1681 3103 1420 2742 
Q 1159 2381 1159 1747 
Q 1159 1113 1420 752 
Q 1681 391 2138 391 
Q 2594 391 2855 752 
Q 3116 1113 3116 1747 
z
M 1159 2969 
Q 1341 3281 1617 3432 
Q 1894 3584 2278 3584 
Q 2916 3584 3314 3078 
Q 3713 2572 3713 1747 
Q 3713 922 3314 415 
Q 2916 -91 2278 -91 
Q 1894 -91 1617 61 
Q 1341 213 1159 525 
L 1159 0 
L 581 0 
L 581 4863 
L 1159 4863 
L 1159 2969 
z
" transform="scale(0.015625)"/>
      <path id="DejaVuSans-75" d="M 544 1381 
L 544 3500 
L 1119 3500 
L 1119 1403 
Q 1119 906 1312 657 
Q 1506 409 1894 409 
Q 2359 409 2629 706 
Q 2900 1003 2900 1516 
L 2900 3500 
L 3475 3500 
L 3475 0 
L 2900 0 
L 2900 538 
Q 2691 219 2414 64 
Q 2138 -91 1772 -91 
Q 1169 -91 856 284 
Q 544 659 544 1381 
z
M 1991 3584 
L 1991 3584 
z
" transform="scale(0.015625)"/>
     </defs>
     <use xlink:href="#DejaVuSans-43"/>
     <use xlink:href="#DejaVuSans-6c" x="69.824219"/>
     <use xlink:href="#DejaVuSans-61" x="97.607422"/>
     <use xlink:href="#DejaVuSans-72" x="158.886719"/>
     <use xlink:href="#DejaVuSans-69" x="200"/>
     <use xlink:href="#DejaVuSans-74" x="227.783203"/>
     <use xlink:href="#DejaVuSans-79" x="266.992188"/>
     <use xlink:href="#DejaVuSans-3a" x="318.921875"/>
     <use xlink:href="#DejaVuSans-20" x="352.613281"/>
     <use xlink:href="#DejaVuSans-69" x="384.400391"/>
     <use xlink:href="#DejaVuSans-74" x="412.183594"/>
     <use xlink:href="#DejaVuSans-65" x="451.392578"/>
     <use xlink:href="#DejaVuSans-6d" x="512.916016"/>
     <use xlink:href="#DejaVuSans-2d" x="610.328125"/>
     <use xlink:href="#DejaVuSans-6c" x="646.412109"/>
     <use xlink:href="#DejaVuSans-65" x="674.195312"/>
     <use xlink:href="#DejaVuSans-76" x="735.71875"/>
     <use xlink:href="#DejaVuSans-65" x="794.898438"/>
     <use xlink:href="#DejaVuSans-6c" x="856.421875"/>
     <use xlink:href="#DejaVuSans-20" x="884.205078"/>
     <use xlink:href="#DejaVuSans-64" x="915.992188"/>
     <use xlink:href="#DejaVuSans-69" x="979.46875"/>
     <use xlink:href="#DejaVuSans-73" x="1007.251953"/>
     <use xlink:href="#DejaVuSans-74" x="1059.351562"/>
     <use xlink:href="#DejaVuSans-72" x="1098.560547"/>
     <use xlink:href="#DejaVuSans-69" x="1139.673828"/>
     <use xlink:href="#DejaVuSans-62" x="1167.457031"/>
     <use xlink:href="#DejaVuSans-75" x="1230.933594"/>
     <use xlink:href="#DejaVuSans-74" x="1294.3125"/>
     <use xlink:href="#DejaVuSans-69" x="1333.521484"/>
     <use xlink:href="#DejaVuSans-6f" x="1361.304688"/>
     <use xlink:href="#DejaVuSans-6e" x="1422.486328"/>
     <use xlink:href="#DejaVuSans-73" x="1485.865234"/>
     <use xlink:href="#DejaVuSans-20" x="1537.964844"/>
     <use xlink:href="#DejaVuSans-62" x="1569.751953"/>
     <use xlink:href="#DejaVuSans-79" x="1633.228516"/>
     <use xlink:href="#DejaVuSans-20" x="1692.408203"/>
     <use xlink:href="#DejaVuSans-67" x="1724.195312"/>
     <use xlink:href="#DejaVuSans-65" x="1787.671875"/>
     <use xlink:href="#DejaVuSans-6e" x="1849.195312"/>
     <use xlink:href="#DejaVuSans-64" x="1912.574219"/>
     <use xlink:href="#DejaVuSans-65" x="1976.050781"/>
     <use xlink:href="#DejaVuSans-72" x="2037.574219"/>
    </g>
   </g>
   <g id="legend_1">
    <g id="line2d_71">
     <defs>
      <path id="m25666b12b6" d="M -6 6 
L 6 6 
L 6 -6 
L -6 -6 
z
" style="stroke: #000000; stroke-linejoin: miter"/>
     </defs>
     <g>
      <use xlink:href="#m25666b12b6" x="634.303438" y="48.726406" style="fill: #25817a; stroke: #000000; stroke-linejoin: miter"/>
     </g>
    </g>
    <g id="text_18">
     <!-- Men -->
     <g transform="translate(654.103438 52.576406) scale(0.11 -0.11)">
      <use xlink:href="#DejaVuSans-4d"/>
      <use xlink:href="#DejaVuSans-65" x="86.279297"/>
      <use xlink:href="#DejaVuSans-6e" x="147.802734"/>
     </g>
    </g>
    <g id="line2d_72">
     <defs>
      <path id="mbe2d10713b" d="M -6 6 
L 6 6 
L 6 -6 
L -6 -6 
z
" style="stroke: #000000; stroke-linejoin: miter"/>
     </defs>
     <g>
      <use xlink:href="#mbe2d10713b" x="634.303438" y="64.872344" style="fill: #87bab6; stroke: #000000; stroke-linejoin: miter"/>
     </g>
    </g>
    <g id="text_19">
     <!-- Women -->
     <g transform="translate(654.103438 68.722344) scale(0.11 -0.11)">
      <use xlink:href="#DejaVuSans-57"/>
      <use xlink:href="#DejaVuSans-6f" x="93.001953"/>
      <use xlink:href="#DejaVuSans-6d" x="154.183594"/>
      <use xlink:href="#DejaVuSans-65" x="251.595703"/>
      <use xlink:href="#DejaVuSans-6e" x="313.119141"/>
     </g>
    </g>
   </g>
  </g>
 </g>
 <defs>
  <clipPath id="p3f065105d4">
   <rect x="35.208438" y="34.318125" width="670.21" height="551.72"/>
  </clipPath>
 </defs>
</svg>
