<?xml version="1.0" encoding="utf-8" standalone="no"?>
<!DOCTYPE svg PUBLIC "-//W3C//DTD SVG 1.1//EN"
  "http://www.w3.org/Graphics/SVG/1.1/DTD/svg11.dtd">
<svg xmlns:xlink="http://www.w3.org/1999/xlink" width="640.618437pt" height="423.804312pt" viewBox="0 0 640.618437 423.804312" xmlns="http://www.w3.org/2000/svg" version="1.1">
 <metadata>
  <rdf:RDF xmlns:dc="http://purl.org/dc/elements/1.1/" xmlns:cc="http://creativecommons.org/ns#" xmlns:rdf="http://www.w3.org/1999/02/22-rdf-syntax-ns#">
   <cc:Work>
    <dc:type rdf:resource="http://purl.org/dc/dcmitype/StillImage"/>
    <dc:date>2026-03-24T20:08:06.328131</dc:date>
    <dc:format>image/svg+xml</dc:format>
    <dc:creator>
     <cc:Agent>
      <dc:title>Matplotlib v3.9.1, https://matplotlib.org/</dc:title>
     </cc:Agent>
    </dc:creator>
   </cc:Work>
  </rdf:RDF>
 </metadata>
 <defs>
  <style type="text/css">*{stroke-linejoin: round; stroke-linecap: butt}</style>
 </defs>
 <g id="figure_1">
  <g id="patch_1">
   <path d="M 0 423.804312 
L 640.618437 423.804312 
L 640.618437 0 
L 0 0 
L 0 423.804312 
z
" style="fill: none"/>
  </g>
  <g id="axes_1">
   <g id="patch_2">
    <path d="M 35.208438 349.688 
L 633.418437 349.688 
L 633.418437 7.2 
L 35.208438 7.2 
L 35.208438 349.688 
z
" style="fill: none"/>
   </g>
   <g id="matplotlib.axis_1">
    <g id="xtick_1">
     <g id="line2d_1">
      <defs>
       <path id="mfb66cbfdd6" d="M 0 0 
L 0 3.5 
" style="stroke: #000000; stroke-width: 0.8"/>
      </defs>
      <g>
       <use xlink:href="#mfb66cbfdd6" x="109.984687" y="349.688" style="stroke: #000000; stroke-width: 0.8"/>
      </g>
     </g>
     <g id="text_1">
      <!-- Usefulness -->
      <g transform="translate(80.160078 365.046281) scale(0.11 -0.11)">
       <defs>
        <path id="DejaVuSans-55" d="M 556 4666 
L 1191 4666 
L 1191 1831 
Q 1191 1081 1462 751 
Q 1734 422 2344 422 
Q 2950 422 3222 751 
Q 3494 1081 3494 1831 
L 3494 4666 
L 4128 4666 
L 4128 1753 
Q 4128 841 3676 375 
Q 3225 -91 2344 -91 
Q 1459 -91 1007 375 
Q 556 841 556 1753 
L 556 4666 
z
" transform="scale(0.015625)"/>
        <path id="DejaVuSans-73" d="M 2834 3397 
L 2834 2853 
Q 2591 2978 2328 3040 
Q 2066 3103 1784 3103 
Q 1356 3103 1142 2972 
Q 928 2841 928 2578 
Q 928 2378 1081 2264 
Q 1234 2150 1697 2047 
L 1894 2003 
Q 2506 1872 2764 1633 
Q 3022 1394 3022 966 
Q 3022 478 2636 193 
Q 2250 -91 1575 -91 
Q 1294 -91 989 -36 
Q 684 19 347 128 
L 347 722 
Q 666 556 975 473 
Q 1284 391 1588 391 
Q 1994 391 2212 530 
Q 2431 669 2431 922 
Q 2431 1156 2273 1281 
Q 2116 1406 1581 1522 
L 1381 1569 
Q 847 1681 609 1914 
Q 372 2147 372 2553 
Q 372 3047 722 3315 
Q 1072 3584 1716 3584 
Q 2034 3584 2315 3537 
Q 2597 3491 2834 3397 
z
" transform="scale(0.015625)"/>
        <path id="DejaVuSans-65" d="M 3597 1894 
L 3597 1613 
L 953 1613 
Q 991 1019 1311 708 
Q 1631 397 2203 397 
Q 2534 397 2845 478 
Q 3156 559 3463 722 
L 3463 178 
Q 3153 47 2828 -22 
Q 2503 -91 2169 -91 
Q 1331 -91 842 396 
Q 353 884 353 1716 
Q 353 2575 817 3079 
Q 1281 3584 2069 3584 
Q 2775 3584 3186 3129 
Q 3597 2675 3597 1894 
z
M 3022 2063 
Q 3016 2534 2758 2815 
Q 2500 3097 2075 3097 
Q 1594 3097 1305 2825 
Q 1016 2553 972 2059 
L 3022 2063 
z
" transform="scale(0.015625)"/>
        <path id="DejaVuSans-66" d="M 2375 4863 
L 2375 4384 
L 1825 4384 
Q 1516 4384 1395 4259 
Q 1275 4134 1275 3809 
L 1275 3500 
L 2222 3500 
L 2222 3053 
L 1275 3053 
L 1275 0 
L 697 0 
L 697 3053 
L 147 3053 
L 147 3500 
L 697 3500 
L 697 3744 
Q 697 4328 969 4595 
Q 1241 4863 1831 4863 
L 2375 4863 
z
" transform="scale(0.015625)"/>
        <path id="DejaVuSans-75" d="M 544 1381 
L 544 3500 
L 1119 3500 
L 1119 1403 
Q 1119 906 1312 657 
Q 1506 409 1894 409 
Q 2359 409 2629 706 
Q 2900 1003 2900 1516 
L 2900 3500 
L 3475 3500 
L 3475 0 
L 2900 0 
L 2900 538 
Q 2691 219 2414 64 
Q 2138 -91 1772 -91 
Q 1169 -91 856 284 
Q 544 659 544 1381 
z
M 1991 3584 
L 1991 3584 
z
" transform="scale(0.015625)"/>
        <path id="DejaVuSans-6c" d="M 603 4863 
L 1178 4863 
L 1178 0 
L 603 0 
L 603 4863 
z
" transform="scale(0.015625)"/>
        <path id="DejaVuSans-6e" d="M 3513 2113 
L 3513 0 
L 2938 0 
L 2938 2094 
Q 2938 2591 2744 2837 
Q 2550 3084 2163 3084 
Q 1697 3084 1428 2787 
Q 1159 2491 1159 1978 
L 1159 0 
L 581 0 
L 581 3500 
L 1159 3500 
L 1159 2956 
Q 1366 3272 1645 3428 
Q 1925 3584 2291 3584 
Q 2894 3584 3203 3211 
Q 3513 2838 3513 2113 
z
" transform="scale(0.015625)"/>
       </defs>
       <use xlink:href="#DejaVuSans-55"/>
       <use xlink:href="#DejaVuSans-73" x="73.193359"/>
       <use xlink:href="#DejaVuSans-65" x="125.292969"/>
       <use xlink:href="#DejaVuSans-66" x="186.816406"/>
       <use xlink:href="#DejaVuSans-75" x="222.021484"/>
       <use xlink:href="#DejaVuSans-6c" x="285.400391"/>
       <use xlink:href="#DejaVuSans-6e" x="313.183594"/>
       <use xlink:href="#DejaVuSans-65" x="376.5625"/>
       <use xlink:href="#DejaVuSans-73" x="438.085938"/>
       <use xlink:href="#DejaVuSans-73" x="490.185547"/>
      </g>
     </g>
    </g>
    <g id="xtick_2">
     <g id="line2d_2">
      <g>
       <use xlink:href="#mfb66cbfdd6" x="259.537187" y="349.688" style="stroke: #000000; stroke-width: 0.8"/>
      </g>
     </g>
     <g id="text_2">
      <!-- Clarity -->
      <g transform="translate(241.597734 365.046281) scale(0.11 -0.11)">
       <defs>
        <path id="DejaVuSans-43" d="M 4122 4306 
L 4122 3641 
Q 3803 3938 3442 4084 
Q 3081 4231 2675 4231 
Q 1875 4231 1450 3742 
Q 1025 3253 1025 2328 
Q 1025 1406 1450 917 
Q 1875 428 2675 428 
Q 3081 428 3442 575 
Q 3803 722 4122 1019 
L 4122 359 
Q 3791 134 3420 21 
Q 3050 -91 2638 -91 
Q 1578 -91 968 557 
Q 359 1206 359 2328 
Q 359 3453 968 4101 
Q 1578 4750 2638 4750 
Q 3056 4750 3426 4639 
Q 3797 4528 4122 4306 
z
" transform="scale(0.015625)"/>
        <path id="DejaVuSans-61" d="M 2194 1759 
Q 1497 1759 1228 1600 
Q 959 1441 959 1056 
Q 959 750 1161 570 
Q 1363 391 1709 391 
Q 2188 391 2477 730 
Q 2766 1069 2766 1631 
L 2766 1759 
L 2194 1759 
z
M 3341 1997 
L 3341 0 
L 2766 0 
L 2766 531 
Q 2569 213 2275 61 
Q 1981 -91 1556 -91 
Q 1019 -91 701 211 
Q 384 513 384 1019 
Q 384 1609 779 1909 
Q 1175 2209 1959 2209 
L 2766 2209 
L 2766 2266 
Q 2766 2663 2505 2880 
Q 2244 3097 1772 3097 
Q 1472 3097 1187 3025 
Q 903 2953 641 2809 
L 641 3341 
Q 956 3463 1253 3523 
Q 1550 3584 1831 3584 
Q 2591 3584 2966 3190 
Q 3341 2797 3341 1997 
z
" transform="scale(0.015625)"/>
        <path id="DejaVuSans-72" d="M 2631 2963 
Q 2534 3019 2420 3045 
Q 2306 3072 2169 3072 
Q 1681 3072 1420 2755 
Q 1159 2438 1159 1844 
L 1159 0 
L 581 0 
L 581 3500 
L 1159 3500 
L 1159 2956 
Q 1341 3275 1631 3429 
Q 1922 3584 2338 3584 
Q 2397 3584 2469 3576 
Q 2541 3569 2628 3553 
L 2631 2963 
z
" transform="scale(0.015625)"/>
        <path id="DejaVuSans-69" d="M 603 3500 
L 1178 3500 
L 1178 0 
L 603 0 
L 603 3500 
z
M 603 4863 
L 1178 4863 
L 1178 4134 
L 603 4134 
L 603 4863 
z
" transform="scale(0.015625)"/>
        <path id="DejaVuSans-74" d="M 1172 4494 
L 1172 3500 
L 2356 3500 
L 2356 3053 
L 1172 3053 
L 1172 1153 
Q 1172 725 1289 603 
Q 1406 481 1766 481 
L 2356 481 
L 2356 0 
L 1766 0 
Q 1100 0 847 248 
Q 594 497 594 1153 
L 594 3053 
L 172 3053 
L 172 3500 
L 594 3500 
L 594 4494 
L 1172 4494 
z
" transform="scale(0.015625)"/>
        <path id="DejaVuSans-79" d="M 2059 -325 
Q 1816 -950 1584 -1140 
Q 1353 -1331 966 -1331 
L 506 -1331 
L 506 -850 
L 844 -850 
Q 1081 -850 1212 -737 
Q 1344 -625 1503 -206 
L 1606 56 
L 191 3500 
L 800 3500 
L 1894 763 
L 2988 3500 
L 3597 3500 
L 2059 -325 
z
" transform="scale(0.015625)"/>
       </defs>
       <use xlink:href="#DejaVuSans-43"/>
       <use xlink:href="#DejaVuSans-6c" x="69.824219"/>
       <use xlink:href="#DejaVuSans-61" x="97.607422"/>
       <use xlink:href="#DejaVuSans-72" x="158.886719"/>
       <use xlink:href="#DejaVuSans-69" x="200"/>
       <use xlink:href="#DejaVuSans-74" x="227.783203"/>
       <use xlink:href="#DejaVuSans-79" x="266.992188"/>
      </g>
     </g>
    </g>
    <g id="xtick_3">
     <g id="line2d_3">
      <g>
       <use xlink:href="#mfb66cbfdd6" x="409.089687" y="349.688" style="stroke: #000000; stroke-width: 0.8"/>
      </g>
     </g>
     <g id="text_3">
      <!-- Expressive -->
      <g transform="translate(379.448125 365.046281) scale(0.11 -0.11)">
       <defs>
        <path id="DejaVuSans-45" d="M 628 4666 
L 3578 4666 
L 3578 4134 
L 1259 4134 
L 1259 2753 
L 3481 2753 
L 3481 2222 
L 1259 2222 
L 1259 531 
L 3634 531 
L 3634 0 
L 628 0 
L 628 4666 
z
" transform="scale(0.015625)"/>
        <path id="DejaVuSans-78" d="M 3513 3500 
L 2247 1797 
L 3578 0 
L 2900 0 
L 1881 1375 
L 863 0 
L 184 0 
L 1544 1831 
L 300 3500 
L 978 3500 
L 1906 2253 
L 2834 3500 
L 3513 3500 
z
" transform="scale(0.015625)"/>
        <path id="DejaVuSans-70" d="M 1159 525 
L 1159 -1331 
L 581 -1331 
L 581 3500 
L 1159 3500 
L 1159 2969 
Q 1341 3281 1617 3432 
Q 1894 3584 2278 3584 
Q 2916 3584 3314 3078 
Q 3713 2572 3713 1747 
Q 3713 922 3314 415 
Q 2916 -91 2278 -91 
Q 1894 -91 1617 61 
Q 1341 213 1159 525 
z
M 3116 1747 
Q 3116 2381 2855 2742 
Q 2594 3103 2138 3103 
Q 1681 3103 1420 2742 
Q 1159 2381 1159 1747 
Q 1159 1113 1420 752 
Q 1681 391 2138 391 
Q 2594 391 2855 752 
Q 3116 1113 3116 1747 
z
" transform="scale(0.015625)"/>
        <path id="DejaVuSans-76" d="M 191 3500 
L 800 3500 
L 1894 563 
L 2988 3500 
L 3597 3500 
L 2284 0 
L 1503 0 
L 191 3500 
z
" transform="scale(0.015625)"/>
       </defs>
       <use xlink:href="#DejaVuSans-45"/>
       <use xlink:href="#DejaVuSans-78" x="63.183594"/>
       <use xlink:href="#DejaVuSans-70" x="122.363281"/>
       <use xlink:href="#DejaVuSans-72" x="185.839844"/>
       <use xlink:href="#DejaVuSans-65" x="224.703125"/>
       <use xlink:href="#DejaVuSans-73" x="286.226562"/>
       <use xlink:href="#DejaVuSans-73" x="338.326172"/>
       <use xlink:href="#DejaVuSans-69" x="390.425781"/>
       <use xlink:href="#DejaVuSans-76" x="418.208984"/>
       <use xlink:href="#DejaVuSans-65" x="477.388672"/>
      </g>
      <!-- / -->
      <g transform="translate(407.236875 377.363875) scale(0.11 -0.11)">
       <defs>
        <path id="DejaVuSans-2f" d="M 1625 4666 
L 2156 4666 
L 531 -594 
L 0 -594 
L 1625 4666 
z
" transform="scale(0.015625)"/>
       </defs>
       <use xlink:href="#DejaVuSans-2f"/>
      </g>
      <!-- Appropriate -->
      <g transform="translate(376.65 389.681469) scale(0.11 -0.11)">
       <defs>
        <path id="DejaVuSans-41" d="M 2188 4044 
L 1331 1722 
L 3047 1722 
L 2188 4044 
z
M 1831 4666 
L 2547 4666 
L 4325 0 
L 3669 0 
L 3244 1197 
L 1141 1197 
L 716 0 
L 50 0 
L 1831 4666 
z
" transform="scale(0.015625)"/>
        <path id="DejaVuSans-6f" d="M 1959 3097 
Q 1497 3097 1228 2736 
Q 959 2375 959 1747 
Q 959 1119 1226 758 
Q 1494 397 1959 397 
Q 2419 397 2687 759 
Q 2956 1122 2956 1747 
Q 2956 2369 2687 2733 
Q 2419 3097 1959 3097 
z
M 1959 3584 
Q 2709 3584 3137 3096 
Q 3566 2609 3566 1747 
Q 3566 888 3137 398 
Q 2709 -91 1959 -91 
Q 1206 -91 779 398 
Q 353 888 353 1747 
Q 353 2609 779 3096 
Q 1206 3584 1959 3584 
z
" transform="scale(0.015625)"/>
       </defs>
       <use xlink:href="#DejaVuSans-41"/>
       <use xlink:href="#DejaVuSans-70" x="68.408203"/>
       <use xlink:href="#DejaVuSans-70" x="131.884766"/>
       <use xlink:href="#DejaVuSans-72" x="195.361328"/>
       <use xlink:href="#DejaVuSans-6f" x="234.224609"/>
       <use xlink:href="#DejaVuSans-70" x="295.40625"/>
       <use xlink:href="#DejaVuSans-72" x="358.882812"/>
       <use xlink:href="#DejaVuSans-69" x="399.996094"/>
       <use xlink:href="#DejaVuSans-61" x="427.779297"/>
       <use xlink:href="#DejaVuSans-74" x="489.058594"/>
       <use xlink:href="#DejaVuSans-65" x="528.267578"/>
      </g>
     </g>
    </g>
    <g id="xtick_4">
     <g id="line2d_4">
      <g>
       <use xlink:href="#mfb66cbfdd6" x="558.642187" y="349.688" style="stroke: #000000; stroke-width: 0.8"/>
      </g>
     </g>
     <g id="text_4">
      <!-- Trust -->
      <g transform="translate(545.326172 365.046281) scale(0.11 -0.11)">
       <defs>
        <path id="DejaVuSans-54" d="M -19 4666 
L 3928 4666 
L 3928 4134 
L 2272 4134 
L 2272 0 
L 1638 0 
L 1638 4134 
L -19 4134 
L -19 4666 
z
" transform="scale(0.015625)"/>
       </defs>
       <use xlink:href="#DejaVuSans-54"/>
       <use xlink:href="#DejaVuSans-72" x="46.333984"/>
       <use xlink:href="#DejaVuSans-75" x="87.447266"/>
       <use xlink:href="#DejaVuSans-73" x="150.826172"/>
       <use xlink:href="#DejaVuSans-74" x="202.925781"/>
      </g>
      <!-- / -->
      <g transform="translate(556.789375 377.363875) scale(0.11 -0.11)">
       <use xlink:href="#DejaVuSans-2f"/>
      </g>
      <!-- Safety -->
      <g transform="translate(541.048203 389.681469) scale(0.11 -0.11)">
       <defs>
        <path id="DejaVuSans-53" d="M 3425 4513 
L 3425 3897 
Q 3066 4069 2747 4153 
Q 2428 4238 2131 4238 
Q 1616 4238 1336 4038 
Q 1056 3838 1056 3469 
Q 1056 3159 1242 3001 
Q 1428 2844 1947 2747 
L 2328 2669 
Q 3034 2534 3370 2195 
Q 3706 1856 3706 1288 
Q 3706 609 3251 259 
Q 2797 -91 1919 -91 
Q 1588 -91 1214 -16 
Q 841 59 441 206 
L 441 856 
Q 825 641 1194 531 
Q 1563 422 1919 422 
Q 2459 422 2753 634 
Q 3047 847 3047 1241 
Q 3047 1584 2836 1778 
Q 2625 1972 2144 2069 
L 1759 2144 
Q 1053 2284 737 2584 
Q 422 2884 422 3419 
Q 422 4038 858 4394 
Q 1294 4750 2059 4750 
Q 2388 4750 2728 4690 
Q 3069 4631 3425 4513 
z
" transform="scale(0.015625)"/>
       </defs>
       <use xlink:href="#DejaVuSans-53"/>
       <use xlink:href="#DejaVuSans-61" x="63.476562"/>
       <use xlink:href="#DejaVuSans-66" x="124.755859"/>
       <use xlink:href="#DejaVuSans-65" x="159.960938"/>
       <use xlink:href="#DejaVuSans-74" x="221.484375"/>
       <use xlink:href="#DejaVuSans-79" x="260.693359"/>
      </g>
      <!-- / -->
      <g transform="translate(556.789375 401.999062) scale(0.11 -0.11)">
       <use xlink:href="#DejaVuSans-2f"/>
      </g>
      <!-- Comfort -->
      <g transform="translate(536.360312 414.316656) scale(0.11 -0.11)">
       <defs>
        <path id="DejaVuSans-6d" d="M 3328 2828 
Q 3544 3216 3844 3400 
Q 4144 3584 4550 3584 
Q 5097 3584 5394 3201 
Q 5691 2819 5691 2113 
L 5691 0 
L 5113 0 
L 5113 2094 
Q 5113 2597 4934 2840 
Q 4756 3084 4391 3084 
Q 3944 3084 3684 2787 
Q 3425 2491 3425 1978 
L 3425 0 
L 2847 0 
L 2847 2094 
Q 2847 2600 2669 2842 
Q 2491 3084 2119 3084 
Q 1678 3084 1418 2786 
Q 1159 2488 1159 1978 
L 1159 0 
L 581 0 
L 581 3500 
L 1159 3500 
L 1159 2956 
Q 1356 3278 1631 3431 
Q 1906 3584 2284 3584 
Q 2666 3584 2933 3390 
Q 3200 3197 3328 2828 
z
" transform="scale(0.015625)"/>
       </defs>
       <use xlink:href="#DejaVuSans-43"/>
       <use xlink:href="#DejaVuSans-6f" x="69.824219"/>
       <use xlink:href="#DejaVuSans-6d" x="131.005859"/>
       <use xlink:href="#DejaVuSans-66" x="228.417969"/>
       <use xlink:href="#DejaVuSans-6f" x="263.623047"/>
       <use xlink:href="#DejaVuSans-72" x="324.804688"/>
       <use xlink:href="#DejaVuSans-74" x="365.917969"/>
      </g>
     </g>
    </g>
   </g>
   <g id="matplotlib.axis_2">
    <g id="ytick_1">
     <g id="line2d_5">
      <defs>
       <path id="m298e6370cf" d="M 0 0 
L -3.5 0 
" style="stroke: #000000; stroke-width: 0.8"/>
      </defs>
      <g>
       <use xlink:href="#m298e6370cf" x="35.208438" y="349.688" style="stroke: #000000; stroke-width: 0.8"/>
      </g>
     </g>
     <g id="text_5">
      <!-- 1 -->
      <g transform="translate(21.845938 353.487219) scale(0.1 -0.1)">
       <defs>
        <path id="DejaVuSans-31" d="M 794 531 
L 1825 531 
L 1825 4091 
L 703 3866 
L 703 4441 
L 1819 4666 
L 2450 4666 
L 2450 531 
L 3481 531 
L 3481 0 
L 794 0 
L 794 531 
z
" transform="scale(0.015625)"/>
       </defs>
       <use xlink:href="#DejaVuSans-31"/>
      </g>
     </g>
    </g>
    <g id="ytick_2">
     <g id="line2d_6">
      <g>
       <use xlink:href="#m298e6370cf" x="35.208438" y="273.579556" style="stroke: #000000; stroke-width: 0.8"/>
      </g>
     </g>
     <g id="text_6">
      <!-- 2 -->
      <g transform="translate(21.845938 277.378774) scale(0.1 -0.1)">
       <defs>
        <path id="DejaVuSans-32" d="M 1228 531 
L 3431 531 
L 3431 0 
L 469 0 
L 469 531 
Q 828 903 1448 1529 
Q 2069 2156 2228 2338 
Q 2531 2678 2651 2914 
Q 2772 3150 2772 3378 
Q 2772 3750 2511 3984 
Q 2250 4219 1831 4219 
Q 1534 4219 1204 4116 
Q 875 4013 500 3803 
L 500 4441 
Q 881 4594 1212 4672 
Q 1544 4750 1819 4750 
Q 2544 4750 2975 4387 
Q 3406 4025 3406 3419 
Q 3406 3131 3298 2873 
Q 3191 2616 2906 2266 
Q 2828 2175 2409 1742 
Q 1991 1309 1228 531 
z
" transform="scale(0.015625)"/>
       </defs>
       <use xlink:href="#DejaVuSans-32"/>
      </g>
     </g>
    </g>
    <g id="ytick_3">
     <g id="line2d_7">
      <g>
       <use xlink:href="#m298e6370cf" x="35.208438" y="197.471111" style="stroke: #000000; stroke-width: 0.8"/>
      </g>
     </g>
     <g id="text_7">
      <!-- 3 -->
      <g transform="translate(21.845938 201.27033) scale(0.1 -0.1)">
       <defs>
        <path id="DejaVuSans-33" d="M 2597 2516 
Q 3050 2419 3304 2112 
Q 3559 1806 3559 1356 
Q 3559 666 3084 287 
Q 2609 -91 1734 -91 
Q 1441 -91 1130 -33 
Q 819 25 488 141 
L 488 750 
Q 750 597 1062 519 
Q 1375 441 1716 441 
Q 2309 441 2620 675 
Q 2931 909 2931 1356 
Q 2931 1769 2642 2001 
Q 2353 2234 1838 2234 
L 1294 2234 
L 1294 2753 
L 1863 2753 
Q 2328 2753 2575 2939 
Q 2822 3125 2822 3475 
Q 2822 3834 2567 4026 
Q 2313 4219 1838 4219 
Q 1578 4219 1281 4162 
Q 984 4106 628 3988 
L 628 4550 
Q 988 4650 1302 4700 
Q 1616 4750 1894 4750 
Q 2613 4750 3031 4423 
Q 3450 4097 3450 3541 
Q 3450 3153 3228 2886 
Q 3006 2619 2597 2516 
z
" transform="scale(0.015625)"/>
       </defs>
       <use xlink:href="#DejaVuSans-33"/>
      </g>
     </g>
    </g>
    <g id="ytick_4">
     <g id="line2d_8">
      <g>
       <use xlink:href="#m298e6370cf" x="35.208438" y="121.362667" style="stroke: #000000; stroke-width: 0.8"/>
      </g>
     </g>
     <g id="text_8">
      <!-- 4 -->
      <g transform="translate(21.845938 125.161885) scale(0.1 -0.1)">
       <defs>
        <path id="DejaVuSans-34" d="M 2419 4116 
L 825 1625 
L 2419 1625 
L 2419 4116 
z
M 2253 4666 
L 3047 4666 
L 3047 1625 
L 3713 1625 
L 3713 1100 
L 3047 1100 
L 3047 0 
L 2419 0 
L 2419 1100 
L 313 1100 
L 313 1709 
L 2253 4666 
z
" transform="scale(0.015625)"/>
       </defs>
       <use xlink:href="#DejaVuSans-34"/>
      </g>
     </g>
    </g>
    <g id="ytick_5">
     <g id="line2d_9">
      <g>
       <use xlink:href="#m298e6370cf" x="35.208438" y="45.254222" style="stroke: #000000; stroke-width: 0.8"/>
      </g>
     </g>
     <g id="text_9">
      <!-- 5 -->
      <g transform="translate(21.845938 49.053441) scale(0.1 -0.1)">
       <defs>
        <path id="DejaVuSans-35" d="M 691 4666 
L 3169 4666 
L 3169 4134 
L 1269 4134 
L 1269 2991 
Q 1406 3038 1543 3061 
Q 1681 3084 1819 3084 
Q 2600 3084 3056 2656 
Q 3513 2228 3513 1497 
Q 3513 744 3044 326 
Q 2575 -91 1722 -91 
Q 1428 -91 1123 -41 
Q 819 9 494 109 
L 494 744 
Q 775 591 1075 516 
Q 1375 441 1709 441 
Q 2250 441 2565 725 
Q 2881 1009 2881 1497 
Q 2881 1984 2565 2268 
Q 2250 2553 1709 2553 
Q 1456 2553 1204 2497 
Q 953 2441 691 2322 
L 691 4666 
z
" transform="scale(0.015625)"/>
       </defs>
       <use xlink:href="#DejaVuSans-35"/>
      </g>
     </g>
    </g>
    <g id="text_10">
     <!-- Participant construct score (median across items) -->
     <g transform="translate(15.558281 315.051109) rotate(-90) scale(0.11 -0.11)">
      <defs>
       <path id="DejaVuSans-50" d="M 1259 4147 
L 1259 2394 
L 2053 2394 
Q 2494 2394 2734 2622 
Q 2975 2850 2975 3272 
Q 2975 3691 2734 3919 
Q 2494 4147 2053 4147 
L 1259 4147 
z
M 628 4666 
L 2053 4666 
Q 2838 4666 3239 4311 
Q 3641 3956 3641 3272 
Q 3641 2581 3239 2228 
Q 2838 1875 2053 1875 
L 1259 1875 
L 1259 0 
L 628 0 
L 628 4666 
z
" transform="scale(0.015625)"/>
       <path id="DejaVuSans-63" d="M 3122 3366 
L 3122 2828 
Q 2878 2963 2633 3030 
Q 2388 3097 2138 3097 
Q 1578 3097 1268 2742 
Q 959 2388 959 1747 
Q 959 1106 1268 751 
Q 1578 397 2138 397 
Q 2388 397 2633 464 
Q 2878 531 3122 666 
L 3122 134 
Q 2881 22 2623 -34 
Q 2366 -91 2075 -91 
Q 1284 -91 818 406 
Q 353 903 353 1747 
Q 353 2603 823 3093 
Q 1294 3584 2113 3584 
Q 2378 3584 2631 3529 
Q 2884 3475 3122 3366 
z
" transform="scale(0.015625)"/>
       <path id="DejaVuSans-20" transform="scale(0.015625)"/>
       <path id="DejaVuSans-28" d="M 1984 4856 
Q 1566 4138 1362 3434 
Q 1159 2731 1159 2009 
Q 1159 1288 1364 580 
Q 1569 -128 1984 -844 
L 1484 -844 
Q 1016 -109 783 600 
Q 550 1309 550 2009 
Q 550 2706 781 3412 
Q 1013 4119 1484 4856 
L 1984 4856 
z
" transform="scale(0.015625)"/>
       <path id="DejaVuSans-64" d="M 2906 2969 
L 2906 4863 
L 3481 4863 
L 3481 0 
L 2906 0 
L 2906 525 
Q 2725 213 2448 61 
Q 2172 -91 1784 -91 
Q 1150 -91 751 415 
Q 353 922 353 1747 
Q 353 2572 751 3078 
Q 1150 3584 1784 3584 
Q 2172 3584 2448 3432 
Q 2725 3281 2906 2969 
z
M 947 1747 
Q 947 1113 1208 752 
Q 1469 391 1925 391 
Q 2381 391 2643 752 
Q 2906 1113 2906 1747 
Q 2906 2381 2643 2742 
Q 2381 3103 1925 3103 
Q 1469 3103 1208 2742 
Q 947 2381 947 1747 
z
" transform="scale(0.015625)"/>
       <path id="DejaVuSans-29" d="M 513 4856 
L 1013 4856 
Q 1481 4119 1714 3412 
Q 1947 2706 1947 2009 
Q 1947 1309 1714 600 
Q 1481 -109 1013 -844 
L 513 -844 
Q 928 -128 1133 580 
Q 1338 1288 1338 2009 
Q 1338 2731 1133 3434 
Q 928 4138 513 4856 
z
" transform="scale(0.015625)"/>
      </defs>
      <use xlink:href="#DejaVuSans-50"/>
      <use xlink:href="#DejaVuSans-61" x="55.802734"/>
      <use xlink:href="#DejaVuSans-72" x="117.082031"/>
      <use xlink:href="#DejaVuSans-74" x="158.195312"/>
      <use xlink:href="#DejaVuSans-69" x="197.404297"/>
      <use xlink:href="#DejaVuSans-63" x="225.1875"/>
      <use xlink:href="#DejaVuSans-69" x="280.167969"/>
      <use xlink:href="#DejaVuSans-70" x="307.951172"/>
      <use xlink:href="#DejaVuSans-61" x="371.427734"/>
      <use xlink:href="#DejaVuSans-6e" x="432.707031"/>
      <use xlink:href="#DejaVuSans-74" x="496.085938"/>
      <use xlink:href="#DejaVuSans-20" x="535.294922"/>
      <use xlink:href="#DejaVuSans-63" x="567.082031"/>
      <use xlink:href="#DejaVuSans-6f" x="622.0625"/>
      <use xlink:href="#DejaVuSans-6e" x="683.244141"/>
      <use xlink:href="#DejaVuSans-73" x="746.623047"/>
      <use xlink:href="#DejaVuSans-74" x="798.722656"/>
      <use xlink:href="#DejaVuSans-72" x="837.931641"/>
      <use xlink:href="#DejaVuSans-75" x="879.044922"/>
      <use xlink:href="#DejaVuSans-63" x="942.423828"/>
      <use xlink:href="#DejaVuSans-74" x="997.404297"/>
      <use xlink:href="#DejaVuSans-20" x="1036.613281"/>
      <use xlink:href="#DejaVuSans-73" x="1068.400391"/>
      <use xlink:href="#DejaVuSans-63" x="1120.5"/>
      <use xlink:href="#DejaVuSans-6f" x="1175.480469"/>
      <use xlink:href="#DejaVuSans-72" x="1236.662109"/>
      <use xlink:href="#DejaVuSans-65" x="1275.525391"/>
      <use xlink:href="#DejaVuSans-20" x="1337.048828"/>
      <use xlink:href="#DejaVuSans-28" x="1368.835938"/>
      <use xlink:href="#DejaVuSans-6d" x="1407.849609"/>
      <use xlink:href="#DejaVuSans-65" x="1505.261719"/>
      <use xlink:href="#DejaVuSans-64" x="1566.785156"/>
      <use xlink:href="#DejaVuSans-69" x="1630.261719"/>
      <use xlink:href="#DejaVuSans-61" x="1658.044922"/>
      <use xlink:href="#DejaVuSans-6e" x="1719.324219"/>
      <use xlink:href="#DejaVuSans-20" x="1782.703125"/>
      <use xlink:href="#DejaVuSans-61" x="1814.490234"/>
      <use xlink:href="#DejaVuSans-63" x="1875.769531"/>
      <use xlink:href="#DejaVuSans-72" x="1930.75"/>
      <use xlink:href="#DejaVuSans-6f" x="1969.613281"/>
      <use xlink:href="#DejaVuSans-73" x="2030.794922"/>
      <use xlink:href="#DejaVuSans-73" x="2082.894531"/>
      <use xlink:href="#DejaVuSans-20" x="2134.994141"/>
      <use xlink:href="#DejaVuSans-69" x="2166.78125"/>
      <use xlink:href="#DejaVuSans-74" x="2194.564453"/>
      <use xlink:href="#DejaVuSans-65" x="2233.773438"/>
      <use xlink:href="#DejaVuSans-6d" x="2295.296875"/>
      <use xlink:href="#DejaVuSans-73" x="2392.708984"/>
      <use xlink:href="#DejaVuSans-29" x="2444.808594"/>
     </g>
    </g>
   </g>
   <g id="patch_3">
    <path d="M 83.813 235.525333 
L 136.156375 235.525333 
L 136.156375 159.416889 
L 83.813 159.416889 
L 83.813 235.525333 
z
" clip-path="url(#p519696ca97)" style="fill: #ee895b; stroke: #000000; stroke-width: 1.8; stroke-linejoin: miter"/>
   </g>
   <g id="line2d_10">
    <path d="M 109.984687 235.525333 
L 109.984687 311.633778 
" clip-path="url(#p519696ca97)" style="fill: none; stroke: #000000; stroke-width: 1.4; stroke-linecap: square"/>
   </g>
   <g id="line2d_11">
    <path d="M 109.984687 159.416889 
L 109.984687 45.254222 
" clip-path="url(#p519696ca97)" style="fill: none; stroke: #000000; stroke-width: 1.4; stroke-linecap: square"/>
   </g>
   <g id="line2d_12">
    <path d="M 96.898844 311.633778 
L 123.070531 311.633778 
" clip-path="url(#p519696ca97)" style="fill: none; stroke: #000000; stroke-width: 1.4; stroke-linecap: square"/>
   </g>
   <g id="line2d_13">
    <path d="M 96.898844 45.254222 
L 123.070531 45.254222 
" clip-path="url(#p519696ca97)" style="fill: none; stroke: #000000; stroke-width: 1.4; stroke-linecap: square"/>
   </g>
   <g id="line2d_14"/>
   <g id="patch_4">
    <path d="M 233.3655 197.471111 
L 285.708875 197.471111 
L 285.708875 121.362667 
L 233.3655 121.362667 
L 233.3655 197.471111 
z
" clip-path="url(#p519696ca97)" style="fill: #25817a; stroke: #000000; stroke-width: 1.8; stroke-linejoin: miter"/>
   </g>
   <g id="line2d_15">
    <path d="M 259.537187 197.471111 
L 259.537187 273.579556 
" clip-path="url(#p519696ca97)" style="fill: none; stroke: #000000; stroke-width: 1.4; stroke-linecap: square"/>
   </g>
   <g id="line2d_16">
    <path d="M 259.537187 121.362667 
L 259.537187 45.254222 
" clip-path="url(#p519696ca97)" style="fill: none; stroke: #000000; stroke-width: 1.4; stroke-linecap: square"/>
   </g>
   <g id="line2d_17">
    <path d="M 246.451344 273.579556 
L 272.623031 273.579556 
" clip-path="url(#p519696ca97)" style="fill: none; stroke: #000000; stroke-width: 1.4; stroke-linecap: square"/>
   </g>
   <g id="line2d_18">
    <path d="M 246.451344 45.254222 
L 272.623031 45.254222 
" clip-path="url(#p519696ca97)" style="fill: none; stroke: #000000; stroke-width: 1.4; stroke-linecap: square"/>
   </g>
   <g id="line2d_19"/>
   <g id="patch_5">
    <path d="M 382.918 197.471111 
L 435.261375 197.471111 
L 435.261375 121.362667 
L 382.918 121.362667 
L 382.918 197.471111 
z
" clip-path="url(#p519696ca97)" style="fill: #d85c64; stroke: #000000; stroke-width: 1.8; stroke-linejoin: miter"/>
   </g>
   <g id="line2d_20">
    <path d="M 409.089687 197.471111 
L 409.089687 273.579556 
" clip-path="url(#p519696ca97)" style="fill: none; stroke: #000000; stroke-width: 1.4; stroke-linecap: square"/>
   </g>
   <g id="line2d_21">
    <path d="M 409.089687 121.362667 
L 409.089687 45.254222 
" clip-path="url(#p519696ca97)" style="fill: none; stroke: #000000; stroke-width: 1.4; stroke-linecap: square"/>
   </g>
   <g id="line2d_22">
    <path d="M 396.003844 273.579556 
L 422.175531 273.579556 
" clip-path="url(#p519696ca97)" style="fill: none; stroke: #000000; stroke-width: 1.4; stroke-linecap: square"/>
   </g>
   <g id="line2d_23">
    <path d="M 396.003844 45.254222 
L 422.175531 45.254222 
" clip-path="url(#p519696ca97)" style="fill: none; stroke: #000000; stroke-width: 1.4; stroke-linecap: square"/>
   </g>
   <g id="line2d_24"/>
   <g id="patch_6">
    <path d="M 532.4705 273.579556 
L 584.813875 273.579556 
L 584.813875 197.471111 
L 532.4705 197.471111 
L 532.4705 273.579556 
z
" clip-path="url(#p519696ca97)" style="fill: #84a5c3; stroke: #000000; stroke-width: 1.8; stroke-linejoin: miter"/>
   </g>
   <g id="line2d_25">
    <path d="M 558.642187 273.579556 
L 558.642187 349.688 
" clip-path="url(#p519696ca97)" style="fill: none; stroke: #000000; stroke-width: 1.4; stroke-linecap: square"/>
   </g>
   <g id="line2d_26">
    <path d="M 558.642187 197.471111 
L 558.642187 121.362667 
" clip-path="url(#p519696ca97)" style="fill: none; stroke: #000000; stroke-width: 1.4; stroke-linecap: square"/>
   </g>
   <g id="line2d_27">
    <path d="M 545.556344 349.688 
L 571.728031 349.688 
" clip-path="url(#p519696ca97)" style="fill: none; stroke: #000000; stroke-width: 1.4; stroke-linecap: square"/>
   </g>
   <g id="line2d_28">
    <path d="M 545.556344 121.362667 
L 571.728031 121.362667 
" clip-path="url(#p519696ca97)" style="fill: none; stroke: #000000; stroke-width: 1.4; stroke-linecap: square"/>
   </g>
   <g id="line2d_29"/>
   <g id="line2d_30">
    <path d="M 83.813 159.416889 
L 136.156375 159.416889 
" clip-path="url(#p519696ca97)" style="fill: none; stroke: #ff0000; stroke-width: 3"/>
   </g>
   <g id="line2d_31">
    <path d="M 233.3655 121.362667 
L 285.708875 121.362667 
" clip-path="url(#p519696ca97)" style="fill: none; stroke: #ff0000; stroke-width: 3"/>
   </g>
   <g id="line2d_32">
    <path d="M 382.918 121.362667 
L 435.261375 121.362667 
" clip-path="url(#p519696ca97)" style="fill: none; stroke: #ff0000; stroke-width: 3"/>
   </g>
   <g id="line2d_33">
    <path d="M 532.4705 197.471111 
L 584.813875 197.471111 
" clip-path="url(#p519696ca97)" style="fill: none; stroke: #ff0000; stroke-width: 3"/>
   </g>
   <g id="patch_7">
    <path d="M 35.208438 349.688 
L 633.418437 349.688 
" style="fill: none; stroke: #000000; stroke-width: 0.8; stroke-linejoin: miter; stroke-linecap: square"/>
   </g>
   <g id="text_11">
    <!-- $\bar{x}=3.50$ -->
    <g transform="translate(89.734687 25.888047) scale(0.1 -0.1)">
     <defs>
      <path id="DejaVuSans-304" d="M -2518 4769 
L -650 4769 
L -650 4306 
L -2518 4306 
L -2518 4769 
z
" transform="scale(0.015625)"/>
      <path id="DejaVuSans-Oblique-78" d="M 3841 3500 
L 2234 1784 
L 3219 0 
L 2559 0 
L 1819 1388 
L 531 0 
L -166 0 
L 1556 1844 
L 641 3500 
L 1300 3500 
L 1972 2234 
L 3144 3500 
L 3841 3500 
z
" transform="scale(0.015625)"/>
      <path id="DejaVuSans-3d" d="M 678 2906 
L 4684 2906 
L 4684 2381 
L 678 2381 
L 678 2906 
z
M 678 1631 
L 4684 1631 
L 4684 1100 
L 678 1100 
L 678 1631 
z
" transform="scale(0.015625)"/>
      <path id="DejaVuSans-2e" d="M 684 794 
L 1344 794 
L 1344 0 
L 684 0 
L 684 794 
z
" transform="scale(0.015625)"/>
      <path id="DejaVuSans-30" d="M 2034 4250 
Q 1547 4250 1301 3770 
Q 1056 3291 1056 2328 
Q 1056 1369 1301 889 
Q 1547 409 2034 409 
Q 2525 409 2770 889 
Q 3016 1369 3016 2328 
Q 3016 3291 2770 3770 
Q 2525 4250 2034 4250 
z
M 2034 4750 
Q 2819 4750 3233 4129 
Q 3647 3509 3647 2328 
Q 3647 1150 3233 529 
Q 2819 -91 2034 -91 
Q 1250 -91 836 529 
Q 422 1150 422 2328 
Q 422 3509 836 4129 
Q 1250 4750 2034 4750 
z
" transform="scale(0.015625)"/>
     </defs>
     <use xlink:href="#DejaVuSans-304" transform="translate(62.138672 0.484375)"/>
     <use xlink:href="#DejaVuSans-Oblique-78" transform="translate(0 0.578125)"/>
     <use xlink:href="#DejaVuSans-3d" transform="translate(78.662109 0.578125)"/>
     <use xlink:href="#DejaVuSans-33" transform="translate(181.933594 0.578125)"/>
     <use xlink:href="#DejaVuSans-2e" transform="translate(245.556641 0.578125)"/>
     <use xlink:href="#DejaVuSans-35" transform="translate(277.34375 0.578125)"/>
     <use xlink:href="#DejaVuSans-30" transform="translate(340.966797 0.578125)"/>
    </g>
    <!-- $\mathrm{IQR}=1.00$ -->
    <g transform="translate(83.784687 37.085859) scale(0.1 -0.1)">
     <defs>
      <path id="DejaVuSans-49" d="M 628 4666 
L 1259 4666 
L 1259 0 
L 628 0 
L 628 4666 
z
" transform="scale(0.015625)"/>
      <path id="DejaVuSans-51" d="M 2522 4238 
Q 1834 4238 1429 3725 
Q 1025 3213 1025 2328 
Q 1025 1447 1429 934 
Q 1834 422 2522 422 
Q 3209 422 3611 934 
Q 4013 1447 4013 2328 
Q 4013 3213 3611 3725 
Q 3209 4238 2522 4238 
z
M 3406 84 
L 4238 -825 
L 3475 -825 
L 2784 -78 
Q 2681 -84 2626 -87 
Q 2572 -91 2522 -91 
Q 1538 -91 948 567 
Q 359 1225 359 2328 
Q 359 3434 948 4092 
Q 1538 4750 2522 4750 
Q 3503 4750 4090 4092 
Q 4678 3434 4678 2328 
Q 4678 1516 4351 937 
Q 4025 359 3406 84 
z
" transform="scale(0.015625)"/>
      <path id="DejaVuSans-52" d="M 2841 2188 
Q 3044 2119 3236 1894 
Q 3428 1669 3622 1275 
L 4263 0 
L 3584 0 
L 2988 1197 
Q 2756 1666 2539 1819 
Q 2322 1972 1947 1972 
L 1259 1972 
L 1259 0 
L 628 0 
L 628 4666 
L 2053 4666 
Q 2853 4666 3247 4331 
Q 3641 3997 3641 3322 
Q 3641 2881 3436 2590 
Q 3231 2300 2841 2188 
z
M 1259 4147 
L 1259 2491 
L 2053 2491 
Q 2509 2491 2742 2702 
Q 2975 2913 2975 3322 
Q 2975 3731 2742 3939 
Q 2509 4147 2053 4147 
L 1259 4147 
z
" transform="scale(0.015625)"/>
     </defs>
     <use xlink:href="#DejaVuSans-49" transform="translate(0 0.78125)"/>
     <use xlink:href="#DejaVuSans-51" transform="translate(29.492188 0.78125)"/>
     <use xlink:href="#DejaVuSans-52" transform="translate(108.203125 0.78125)"/>
     <use xlink:href="#DejaVuSans-3d" transform="translate(197.167969 0.78125)"/>
     <use xlink:href="#DejaVuSans-31" transform="translate(300.439453 0.78125)"/>
     <use xlink:href="#DejaVuSans-2e" transform="translate(364.0625 0.78125)"/>
     <use xlink:href="#DejaVuSans-30" transform="translate(395.849609 0.78125)"/>
     <use xlink:href="#DejaVuSans-30" transform="translate(459.472656 0.78125)"/>
    </g>
   </g>
   <g id="text_12">
    <!-- $\bar{x}=4.00$ -->
    <g transform="translate(239.287187 25.888047) scale(0.1 -0.1)">
     <use xlink:href="#DejaVuSans-304" transform="translate(62.138672 0.484375)"/>
     <use xlink:href="#DejaVuSans-Oblique-78" transform="translate(0 0.578125)"/>
     <use xlink:href="#DejaVuSans-3d" transform="translate(78.662109 0.578125)"/>
     <use xlink:href="#DejaVuSans-34" transform="translate(181.933594 0.578125)"/>
     <use xlink:href="#DejaVuSans-2e" transform="translate(245.556641 0.578125)"/>
     <use xlink:href="#DejaVuSans-30" transform="translate(277.34375 0.578125)"/>
     <use xlink:href="#DejaVuSans-30" transform="translate(340.966797 0.578125)"/>
    </g>
    <!-- $\mathrm{IQR}=1.00$ -->
    <g transform="translate(233.337187 37.085859) scale(0.1 -0.1)">
     <use xlink:href="#DejaVuSans-49" transform="translate(0 0.78125)"/>
     <use xlink:href="#DejaVuSans-51" transform="translate(29.492188 0.78125)"/>
     <use xlink:href="#DejaVuSans-52" transform="translate(108.203125 0.78125)"/>
     <use xlink:href="#DejaVuSans-3d" transform="translate(197.167969 0.78125)"/>
     <use xlink:href="#DejaVuSans-31" transform="translate(300.439453 0.78125)"/>
     <use xlink:href="#DejaVuSans-2e" transform="translate(364.0625 0.78125)"/>
     <use xlink:href="#DejaVuSans-30" transform="translate(395.849609 0.78125)"/>
     <use xlink:href="#DejaVuSans-30" transform="translate(459.472656 0.78125)"/>
    </g>
   </g>
   <g id="text_13">
    <!-- $\bar{x}=4.00$ -->
    <g transform="translate(388.839687 25.888047) scale(0.1 -0.1)">
     <use xlink:href="#DejaVuSans-304" transform="translate(62.138672 0.484375)"/>
     <use xlink:href="#DejaVuSans-Oblique-78" transform="translate(0 0.578125)"/>
     <use xlink:href="#DejaVuSans-3d" transform="translate(78.662109 0.578125)"/>
     <use xlink:href="#DejaVuSans-34" transform="translate(181.933594 0.578125)"/>
     <use xlink:href="#DejaVuSans-2e" transform="translate(245.556641 0.578125)"/>
     <use xlink:href="#DejaVuSans-30" transform="translate(277.34375 0.578125)"/>
     <use xlink:href="#DejaVuSans-30" transform="translate(340.966797 0.578125)"/>
    </g>
    <!-- $\mathrm{IQR}=1.00$ -->
    <g transform="translate(382.889687 37.085859) scale(0.1 -0.1)">
     <use xlink:href="#DejaVuSans-49" transform="translate(0 0.78125)"/>
     <use xlink:href="#DejaVuSans-51" transform="translate(29.492188 0.78125)"/>
     <use xlink:href="#DejaVuSans-52" transform="translate(108.203125 0.78125)"/>
     <use xlink:href="#DejaVuSans-3d" transform="translate(197.167969 0.78125)"/>
     <use xlink:href="#DejaVuSans-31" transform="translate(300.439453 0.78125)"/>
     <use xlink:href="#DejaVuSans-2e" transform="translate(364.0625 0.78125)"/>
     <use xlink:href="#DejaVuSans-30" transform="translate(395.849609 0.78125)"/>
     <use xlink:href="#DejaVuSans-30" transform="translate(459.472656 0.78125)"/>
    </g>
   </g>
   <g id="text_14">
    <!-- $\bar{x}=3.00$ -->
    <g transform="translate(538.392187 101.996491) scale(0.1 -0.1)">
     <use xlink:href="#DejaVuSans-304" transform="translate(62.138672 0.484375)"/>
     <use xlink:href="#DejaVuSans-Oblique-78" transform="translate(0 0.578125)"/>
     <use xlink:href="#DejaVuSans-3d" transform="translate(78.662109 0.578125)"/>
     <use xlink:href="#DejaVuSans-33" transform="translate(181.933594 0.578125)"/>
     <use xlink:href="#DejaVuSans-2e" transform="translate(245.556641 0.578125)"/>
     <use xlink:href="#DejaVuSans-30" transform="translate(277.34375 0.578125)"/>
     <use xlink:href="#DejaVuSans-30" transform="translate(340.966797 0.578125)"/>
    </g>
    <!-- $\mathrm{IQR}=1.00$ -->
    <g transform="translate(532.442187 113.194304) scale(0.1 -0.1)">
     <use xlink:href="#DejaVuSans-49" transform="translate(0 0.78125)"/>
     <use xlink:href="#DejaVuSans-51" transform="translate(29.492188 0.78125)"/>
     <use xlink:href="#DejaVuSans-52" transform="translate(108.203125 0.78125)"/>
     <use xlink:href="#DejaVuSans-3d" transform="translate(197.167969 0.78125)"/>
     <use xlink:href="#DejaVuSans-31" transform="translate(300.439453 0.78125)"/>
     <use xlink:href="#DejaVuSans-2e" transform="translate(364.0625 0.78125)"/>
     <use xlink:href="#DejaVuSans-30" transform="translate(395.849609 0.78125)"/>
     <use xlink:href="#DejaVuSans-30" transform="translate(459.472656 0.78125)"/>
    </g>
   </g>
  </g>
 </g>
 <defs>
  <clipPath id="p519696ca97">
   <rect x="35.208438" y="7.2" width="598.21" height="342.488"/>
  </clipPath>
 </defs>
</svg>
